<svg xmlns="http://www.w3.org/2000/svg" width="208" height="60" viewBox="0 0 208 60">
  <g id="Applestore" transform="translate(-373 -807)">
    <g id="Path_192" data-name="Path 192" transform="translate(373 807)" fill="#ffff">
      <path d="M 178 59.5 L 30 59.5 C 26.01731491088867 59.5 22.15402603149414 58.7201042175293 18.51742172241211 57.18194580078125 C 15.00465774536133 55.69615936279297 11.8497371673584 53.56905364990234 9.140368461608887 50.85965728759766 C 6.430973529815674 48.15026473999023 4.303842067718506 44.99536895751953 2.818052530288696 41.48257827758789 C 1.279894709587097 37.84600067138672 0.5 33.98268508911133 0.5 30 C 0.5 26.01731491088867 1.279894709587097 22.15399932861328 2.818052530288696 18.51742172241211 C 4.303842067718506 15.00463199615479 6.430973529815674 11.8497371673584 9.140368461608887 9.140341758728027 C 11.8497371673584 6.430947303771973 15.00465774536133 4.303842067718506 18.51742172241211 2.818052530288696 C 22.15402603149414 1.279894709587097 26.01731491088867 0.5 30 0.5 L 178 0.5 C 181.9827117919922 0.5 185.8459930419922 1.279894709587097 189.4825744628906 2.818052530288696 C 192.995361328125 4.303842067718506 196.1502685546875 6.430947303771973 198.8596649169922 9.140341758728027 C 201.5690460205078 11.8497371673584 203.6961517333984 15.00463199615479 205.1819458007812 18.51742172241211 C 206.7201080322266 22.15399932861328 207.5 26.01729011535645 207.5 30 C 207.5 33.98271179199219 206.7201080322266 37.84600067138672 205.1819458007812 41.48257827758789 C 203.6961517333984 44.99536895751953 201.5690460205078 48.15026473999023 198.8596649169922 50.85965728759766 C 196.1502685546875 53.56905364990234 192.995361328125 55.69615936279297 189.4825744628906 57.18194580078125 C 185.8459930419922 58.7201042175293 181.9827117919922 59.5 178 59.5 Z" stroke="none"/>
      <path d="M 30 1 C 26.08457946777344 1 22.28681945800781 1.766605377197266 18.71218872070312 3.278553009033203 C 15.25900268554688 4.739131927490234 12.15753173828125 6.830265045166016 9.493896484375 9.493896484375 C 6.83026123046875 12.15752792358398 4.7391357421875 15.25899887084961 3.278549194335938 18.71218490600586 C 1.7666015625 22.28681564331055 1 26.08457946777344 1 30 C 1 33.91542053222656 1.7666015625 37.71318435668945 3.278549194335938 41.28781509399414 C 4.7391357421875 44.74100112915039 6.83026123046875 47.84247589111328 9.493896484375 50.506103515625 C 12.15753173828125 53.16973876953125 15.25900268554688 55.26086807250977 18.71218872070312 56.7214469909668 C 22.28681945800781 58.23339462280273 26.08457946777344 59 30 59 L 178 59 C 181.9154205322266 59 185.7131805419922 58.23339462280273 189.2877960205078 56.7214469909668 C 192.740966796875 55.26086807250977 195.8424530029297 53.16973876953125 198.5060729980469 50.506103515625 C 201.1697387695312 47.84247589111328 203.2608642578125 44.74097442626953 204.7214508056641 41.28781509399414 C 206.2333984375 37.71318435668945 207 33.91542053222656 207 30 C 207 26.08457946777344 206.2333984375 22.28681564331055 204.7214508056641 18.71218490600586 C 203.2608642578125 15.25902557373047 201.1697387695312 12.15752792358398 198.5060729980469 9.493896484375 C 195.8424530029297 6.830265045166016 192.740966796875 4.739131927490234 189.2877960205078 3.278553009033203 C 185.7131805419922 1.766605377197266 181.9154205322266 1 178 1 L 30 1 M 30 0 L 178 0 C 194.5685272216797 0 208 13.43144607543945 208 30 C 208 46.56855392456055 194.5685272216797 60 178 60 L 30 60 C 13.43144226074219 60 0 46.56855392456055 0 30 C 0 13.43144607543945 13.43144226074219 0 30 0 Z" stroke="none" fill="#707070"/>
    </g>
    <g id="Asset_3" data-name="Asset 3" transform="translate(415 822)">
      <path id="Path_27" data-name="Path 27" d="M1.254,10.934C-1.26,15.3.338,21.92,3.119,25.936c1.388,2.007,2.793,3.81,4.718,3.81h.11a5.84,5.84,0,0,0,2.19-.583,5.982,5.982,0,0,1,2.594-.618,5.655,5.655,0,0,1,2.471.6,5.21,5.21,0,0,0,2.368.567c2.168-.04,3.5-1.985,4.675-3.7a16.413,16.413,0,0,0,2.048-4.195l.008-.026a.245.245,0,0,0-.13-.3l-.017-.007a6.223,6.223,0,0,1-3.766-5.692A6.4,6.4,0,0,1,23.41,10.44l.024-.015a.242.242,0,0,0,.1-.156.243.243,0,0,0-.037-.186,7.024,7.024,0,0,0-5.534-3,4.633,4.633,0,0,0-.482-.024,9.651,9.651,0,0,0-3.473.867,5.59,5.59,0,0,1-1.664.5,5.448,5.448,0,0,1-1.721-.5,8.358,8.358,0,0,0-3.033-.77H7.517A7.438,7.438,0,0,0,1.254,10.934Z"/>
      <path id="Path_28" data-name="Path 28" d="M17.967,0a6.79,6.79,0,0,0-4.483,2.3,6.353,6.353,0,0,0-1.611,4.718.244.244,0,0,0,.222.211c.1.008.206.012.315.012a5.749,5.749,0,0,0,4.233-2.17A6.713,6.713,0,0,0,18.219.218.246.246,0,0,0,17.967,0Z"/>
      <path id="Path_29" data-name="Path 29" d="M35.654.939H38.57a4.258,4.258,0,0,1,2.036.474,3.474,3.474,0,0,1,1.385,1.31,3.9,3.9,0,0,1,0,3.8,3.469,3.469,0,0,1-1.385,1.311,4.27,4.27,0,0,1-2.036.474H35.654Zm2.874,6.882a3.851,3.851,0,0,0,1.8-.406,2.9,2.9,0,0,0,1.2-1.133,3.493,3.493,0,0,0,0-3.326,2.9,2.9,0,0,0-1.2-1.133,3.838,3.838,0,0,0-1.8-.406H36.191v6.4Z"/>
      <path id="Path_30" data-name="Path 30" d="M44.921,7.989a2.582,2.582,0,0,1-.984-.995,3.066,3.066,0,0,1,0-2.873,2.582,2.582,0,0,1,.984-.995,2.934,2.934,0,0,1,2.81,0,2.589,2.589,0,0,1,.984.995,3.067,3.067,0,0,1,0,2.873,2.589,2.589,0,0,1-.984.995,2.934,2.934,0,0,1-2.81,0Zm2.536-.412a2.111,2.111,0,0,0,.79-.824,2.631,2.631,0,0,0,0-2.4,2.111,2.111,0,0,0-.79-.824,2.313,2.313,0,0,0-2.265,0,2.1,2.1,0,0,0-.79.824,2.631,2.631,0,0,0,0,2.4,2.1,2.1,0,0,0,.79.824,2.313,2.313,0,0,0,2.265,0Z"/>
      <path id="Path_31" data-name="Path 31" d="M58.4,2.811,56.313,8.305h-.494L53.965,3.538,52.1,8.305h-.484L49.535,2.811h.5l1.832,4.9,1.873-4.9H54.2L56.059,7.7l1.853-4.894Z"/>
      <path id="Path_32" data-name="Path 32" d="M63.932,3.369a2.328,2.328,0,0,1,.6,1.726v3.21h-.523V5.137a1.949,1.949,0,0,0-.469-1.411,1.739,1.739,0,0,0-1.311-.484,2.017,2.017,0,0,0-1.526.58,2.152,2.152,0,0,0-.557,1.557V8.305h-.526V2.811h.5V4a2.1,2.1,0,0,1,.847-.905A2.609,2.609,0,0,1,62.3,2.769,2.2,2.2,0,0,1,63.932,3.369Z"/>
      <path id="Path_33" data-name="Path 33" d="M66.7.5h.526V8.305H66.7Z"/>
      <path id="Path_34" data-name="Path 34" d="M70.187,7.989a2.574,2.574,0,0,1-.983-.995,3.058,3.058,0,0,1,0-2.873,2.574,2.574,0,0,1,.983-.995,2.933,2.933,0,0,1,2.81,0,2.581,2.581,0,0,1,.984.995,3.066,3.066,0,0,1,0,2.873A2.581,2.581,0,0,1,73,7.989a2.933,2.933,0,0,1-2.81,0Zm2.537-.412a2.108,2.108,0,0,0,.789-.824,2.631,2.631,0,0,0,0-2.4,2.108,2.108,0,0,0-.789-.824,2.315,2.315,0,0,0-2.265,0,2.11,2.11,0,0,0-.79.824,2.631,2.631,0,0,0,0,2.4,2.11,2.11,0,0,0,.79.824,2.315,2.315,0,0,0,2.265,0Z"/>
      <path id="Path_35" data-name="Path 35" d="M79.37,3.29a2.024,2.024,0,0,1,.548,1.532V8.305h-.506V7.323a1.824,1.824,0,0,1-.768.753,2.545,2.545,0,0,1-1.211.277,2.207,2.207,0,0,1-1.441-.432,1.493,1.493,0,0,1-.042-2.247,2.353,2.353,0,0,1,1.563-.426H79.4V4.8a1.556,1.556,0,0,0-.412-1.168,1.678,1.678,0,0,0-1.216-.4,2.925,2.925,0,0,0-1.047.189,2.618,2.618,0,0,0-.846.506l-.264-.379a2.919,2.919,0,0,1,.99-.574,3.585,3.585,0,0,1,1.21-.206A2.172,2.172,0,0,1,79.37,3.29Zm-.7,4.31a1.928,1.928,0,0,0,.721-.915V5.655H77.518a1.862,1.862,0,0,0-1.173.294.988.988,0,0,0-.363.81,1.014,1.014,0,0,0,.4.847,1.808,1.808,0,0,0,1.126.309A2.068,2.068,0,0,0,78.67,7.6Z"/>
      <path id="Path_36" data-name="Path 36" d="M86.98.5V8.305h-.515V7.014A2.361,2.361,0,0,1,85.549,8a2.584,2.584,0,0,1-1.339.348,2.731,2.731,0,0,1-1.39-.358A2.56,2.56,0,0,1,81.848,7a3.137,3.137,0,0,1,0-2.888,2.507,2.507,0,0,1,.973-.989,2.769,2.769,0,0,1,1.39-.353,2.533,2.533,0,0,1,1.318.344,2.483,2.483,0,0,1,.927.968V.5ZM85.374,7.578a2.11,2.11,0,0,0,.79-.824,2.631,2.631,0,0,0,0-2.4,2.11,2.11,0,0,0-.79-.824,2.315,2.315,0,0,0-2.265,0,2.108,2.108,0,0,0-.789.824,2.632,2.632,0,0,0,0,2.4,2.108,2.108,0,0,0,.789.824,2.315,2.315,0,0,0,2.265,0Z"/>
      <path id="Path_37" data-name="Path 37" d="M92.647,7.989a2.574,2.574,0,0,1-.984-.995,3.058,3.058,0,0,1,0-2.873,2.574,2.574,0,0,1,.984-.995,2.933,2.933,0,0,1,2.81,0,2.586,2.586,0,0,1,.983.995,3.058,3.058,0,0,1,0,2.873,2.586,2.586,0,0,1-.983.995,2.933,2.933,0,0,1-2.81,0Zm2.536-.412a2.108,2.108,0,0,0,.789-.824,2.631,2.631,0,0,0,0-2.4,2.108,2.108,0,0,0-.789-.824,2.315,2.315,0,0,0-2.265,0,2.108,2.108,0,0,0-.789.824,2.631,2.631,0,0,0,0,2.4,2.108,2.108,0,0,0,.789.824,2.315,2.315,0,0,0,2.265,0Z"/>
      <path id="Path_38" data-name="Path 38" d="M102.745,3.369a2.338,2.338,0,0,1,.6,1.726v3.21h-.526V5.137a1.947,1.947,0,0,0-.469-1.411,1.737,1.737,0,0,0-1.309-.484,2.017,2.017,0,0,0-1.526.58,2.156,2.156,0,0,0-.558,1.557V8.305h-.526V2.811h.506V4a2.093,2.093,0,0,1,.846-.905,2.614,2.614,0,0,1,1.332-.326A2.208,2.208,0,0,1,102.745,3.369Z"/>
      <path id="Path_39" data-name="Path 39" d="M110.942,7.957a1.31,1.31,0,0,1-.5.292,1.953,1.953,0,0,1-.626.1,1.469,1.469,0,0,1-1.1-.4,1.528,1.528,0,0,1-.391-1.1V3.264h-1.01V2.811h1.01v-1.2h.526v1.2H110.6v.453h-1.751V6.8a1.159,1.159,0,0,0,.259.815.993.993,0,0,0,.763.279,1.222,1.222,0,0,0,.852-.309Z"/>
      <path id="Path_40" data-name="Path 40" d="M116.72,3.369a2.334,2.334,0,0,1,.6,1.726v3.21h-.526V5.137a1.951,1.951,0,0,0-.468-1.411,1.739,1.739,0,0,0-1.31-.484,2.019,2.019,0,0,0-1.526.58,2.15,2.15,0,0,0-.558,1.557V8.305H112.4V.5h.526V3.958a2.016,2.016,0,0,1,.842-.878,2.663,2.663,0,0,1,1.315-.309A2.2,2.2,0,0,1,116.72,3.369Z"/>
      <path id="Path_41" data-name="Path 41" d="M124.141,5.685h-4.725a2.289,2.289,0,0,0,.326,1.142,2.086,2.086,0,0,0,.824.773,2.639,2.639,0,0,0,2.168.078A1.933,1.933,0,0,0,123.5,7.1l.309.348a2.344,2.344,0,0,1-.9.663,3.13,3.13,0,0,1-2.636-.127,2.592,2.592,0,0,1-1-.989,2.839,2.839,0,0,1-.363-1.442,2.977,2.977,0,0,1,.342-1.441,2.524,2.524,0,0,1,.942-.995,2.718,2.718,0,0,1,2.689,0,2.5,2.5,0,0,1,.936.983,2.963,2.963,0,0,1,.343,1.432Zm-3.652-2.2a1.982,1.982,0,0,0-.742.727,2.352,2.352,0,0,0-.321,1.057h4.21a2.212,2.212,0,0,0-.316-1.052,2.047,2.047,0,0,0-1.789-.989,2.114,2.114,0,0,0-1.044.257Z"/>
      <path id="Path_42" data-name="Path 42" d="M43.446,24.59h-6.3L35.916,27.5H33.5l5.663-12.589h2.3L47.151,27.5H44.7Zm-.773-1.834-2.374-5.5-2.356,5.5Z"/>
      <path id="Path_43" data-name="Path 43" d="M56.367,18.4A4.415,4.415,0,0,1,58.1,20.131a5.6,5.6,0,0,1,0,5.156,4.39,4.39,0,0,1-1.736,1.735,5.094,5.094,0,0,1-2.508.612,3.878,3.878,0,0,1-3.076-1.294V31H48.536V17.9h2.14v1.263a3.47,3.47,0,0,1,1.376-1.03,4.651,4.651,0,0,1,1.808-.342,5.1,5.1,0,0,1,2.508.612Zm-.721,6.474a2.991,2.991,0,0,0,.8-2.177,2.988,2.988,0,0,0-.8-2.176A2.726,2.726,0,0,0,53.6,19.7a2.893,2.893,0,0,0-1.457.37,2.659,2.659,0,0,0-1.03,1.051,3.5,3.5,0,0,0,0,3.166,2.658,2.658,0,0,0,1.03,1.051,2.891,2.891,0,0,0,1.462.365,2.721,2.721,0,0,0,2.039-.827Z"/>
      <path id="Path_44" data-name="Path 44" d="M68.7,18.4a4.415,4.415,0,0,1,1.736,1.727,5.6,5.6,0,0,1,0,5.156A4.389,4.389,0,0,1,68.7,27.021a5.094,5.094,0,0,1-2.508.612,3.877,3.877,0,0,1-3.075-1.294V31H60.873V17.9h2.14v1.263a3.469,3.469,0,0,1,1.376-1.03,4.651,4.651,0,0,1,1.808-.342A5.1,5.1,0,0,1,68.7,18.4Zm-.721,6.474a2.991,2.991,0,0,0,.8-2.177,2.988,2.988,0,0,0-.8-2.176,2.728,2.728,0,0,0-2.042-.824,2.894,2.894,0,0,0-1.457.37,2.658,2.658,0,0,0-1.022,1.048,3.5,3.5,0,0,0,0,3.166,2.657,2.657,0,0,0,1.024,1.055,2.892,2.892,0,0,0,1.457.369,2.735,2.735,0,0,0,2.042-.832Z"/>
      <path id="Path_45" data-name="Path 45" d="M79.477,27.27a5.835,5.835,0,0,1-2.149-1.1l.809-1.817a6.369,6.369,0,0,0,1.9,1,6.9,6.9,0,0,0,2.257.386,3.907,3.907,0,0,0,2.1-.449,1.358,1.358,0,0,0,.692-1.186,1.151,1.151,0,0,0-.386-.891,2.721,2.721,0,0,0-.98-.548q-.593-.2-1.619-.45a18.827,18.827,0,0,1-2.331-.686,3.838,3.838,0,0,1-1.529-1.07,2.885,2.885,0,0,1-.638-1.97,3.364,3.364,0,0,1,.566-1.9,3.829,3.829,0,0,1,1.709-1.358,6.911,6.911,0,0,1,2.8-.5,9.062,9.062,0,0,1,2.265.287,6.281,6.281,0,0,1,1.924.824l-.738,1.816A7.239,7.239,0,0,0,84.4,16.93a6.467,6.467,0,0,0-1.75-.252,3.648,3.648,0,0,0-2.059.468,1.439,1.439,0,0,0-.674,1.241,1.12,1.12,0,0,0,.387.881,2.779,2.779,0,0,0,.98.54q.593.2,1.619.45a17.152,17.152,0,0,1,2.3.674A3.946,3.946,0,0,1,86.738,22a2.831,2.831,0,0,1,.638,1.943,3.317,3.317,0,0,1-.566,1.888,3.85,3.85,0,0,1-1.717,1.349,6.988,6.988,0,0,1-2.806.5,9.6,9.6,0,0,1-2.81-.414Z"/>
      <path id="Path_46" data-name="Path 46" d="M95.258,26.983a2.654,2.654,0,0,1-.962.485,4.324,4.324,0,0,1-1.2.162,3.4,3.4,0,0,1-2.445-.824,3.173,3.173,0,0,1-.863-2.41V19.77H88.206v-1.8h1.584V15.778h2.248v2.194h2.574v1.8H92.037v4.569a1.518,1.518,0,0,0,.342,1.07,1.282,1.282,0,0,0,.988.369,1.977,1.977,0,0,0,1.259-.4Z"/>
      <path id="Path_47" data-name="Path 47" d="M98.478,27a4.584,4.584,0,0,1-1.826-1.75,5.251,5.251,0,0,1,0-5.08,4.612,4.612,0,0,1,1.826-1.745,5.831,5.831,0,0,1,5.269,0,4.605,4.605,0,0,1,1.826,1.745,5.253,5.253,0,0,1,0,5.08A4.581,4.581,0,0,1,103.747,27a5.831,5.831,0,0,1-5.269,0Zm4.675-2.122a2.97,2.97,0,0,0,.81-2.177,2.967,2.967,0,0,0-.81-2.176,2.752,2.752,0,0,0-2.05-.824,2.722,2.722,0,0,0-2.04.824,2.982,2.982,0,0,0-.8,2.176,3,3,0,0,0,.8,2.177,2.722,2.722,0,0,0,2.04.824A2.752,2.752,0,0,0,103.153,24.878Z"/>
      <path id="Path_48" data-name="Path 48" d="M113.947,17.792v2.141a2.843,2.843,0,0,0-.521-.055,2.714,2.714,0,0,0-2.05.765,3.056,3.056,0,0,0-.738,2.2V27.5h-2.251V17.9h2.141v1.4A3.745,3.745,0,0,1,113.947,17.792Z"/>
      <path id="Path_49" data-name="Path 49" d="M124.758,23.421h-7.536a2.609,2.609,0,0,0,1.03,1.681,3.4,3.4,0,0,0,2.077.618,3.5,3.5,0,0,0,2.608-1.043l1.2,1.385a4.062,4.062,0,0,1-1.636,1.169A6.492,6.492,0,0,1,117.486,27a4.525,4.525,0,0,1-1.861-1.75,4.947,4.947,0,0,1-.656-2.545,5.03,5.03,0,0,1,.638-2.527,4.525,4.525,0,0,1,1.772-1.75,5.172,5.172,0,0,1,2.553-.629,5.036,5.036,0,0,1,2.509.618,4.377,4.377,0,0,1,1.726,1.744,5.308,5.308,0,0,1,.618,2.6C124.789,22.912,124.777,23.134,124.758,23.421Zm-6.645-3.192a2.686,2.686,0,0,0-.908,1.7h5.449a2.628,2.628,0,0,0-2.715-2.337,2.715,2.715,0,0,0-1.831.638Z"/>
    </g>
  </g>
</svg>
