<svg xmlns="http://www.w3.org/2000/svg" xmlns:xlink="http://www.w3.org/1999/xlink" width="103.253" height="82.697" viewBox="0 0 103.253 82.697">
  <defs>
    <linearGradient id="linear-gradient" x1="1" x2="0.048" y2="1" gradientUnits="objectBoundingBox">
      <stop offset="0" stop-color="#ffe660"/>
      <stop offset="1" stop-color="#ff8e16"/>
    </linearGradient>
  </defs>
  <g id="Group_76" data-name="Group 76" transform="translate(-483 -233.777)">
    <path id="Union_1" data-name="Union 1" d="M-340.3-1401.624a1.94,1.94,0,0,1-.2-.077c-.466-.2-.931-.429-1.377-.653a7.272,7.272,0,0,0-2.738-.988h-37.65a1.914,1.914,0,0,1-1.228-.427A1.354,1.354,0,0,1-384-1404.8v-77.958a1.612,1.612,0,0,1,1.715-1.461h38.623a13.627,13.627,0,0,1,11.289,5.5,13.624,13.624,0,0,1,11.254-5.5h38.636a1.616,1.616,0,0,1,1.737,1.461h0v64.8c0,.006,0,.012,0,.019s0,0,0,0,0,.01,0,.014v.018c0,.016,0,.032,0,.048v6.52c0,.034,0,.068,0,.1s0,.069,0,.1v6.333a1.349,1.349,0,0,1-.506,1.033,1.911,1.911,0,0,1-1.227.428H-320.2a7.545,7.545,0,0,0-2.677.987c-.464.236-.949.477-1.434.677a1.969,1.969,0,0,1-.766.153h-14.609A1.979,1.979,0,0,1-340.3-1401.624Zm14.794-2.825c.265-.123.547-.266.844-.415a10.171,10.171,0,0,1,4.546-1.4c.039,0,.079,0,.118,0h35.771v-3.513h-16.286a1.916,1.916,0,0,1-1.229-.428,1.354,1.354,0,0,1-.508-1.033,1.619,1.619,0,0,1,1.737-1.461h16.286v-3.8h-36.859c-5.266,0-9.552,3.606-9.552,8.036v0c0,.005,0,.01,0,.016s0,0,0,0,0,.01,0,.016v.006s0,.008,0,.012v.018a1.629,1.629,0,0,1-1.711,1.388h-.023a1.913,1.913,0,0,1-1.228-.428,1.354,1.354,0,0,1-.509-1.033c0-4.43-4.287-8.036-9.552-8.036h-36.863v10.239h35.889a10.171,10.171,0,0,1,4.546,1.4c.292.146.573.289.837.412Zm-6.87-9.481a13.621,13.621,0,0,1,11.238-5.495h36.915V-1481.3h-36.864c-5.266,0-9.552,3.606-9.552,8.036,0,0,0,0,0,0a1.28,1.28,0,0,1-.2.684,1.51,1.51,0,0,1-.3.345,1.714,1.714,0,0,1-.294.2,1.981,1.981,0,0,1-.934.229,1.913,1.913,0,0,1-1.228-.428,1.355,1.355,0,0,1-.509-1.034c0-4.43-4.287-8.036-9.552-8.036h-36.863v61.875h36.864A13.626,13.626,0,0,1-332.374-1413.931Zm25.673,4.153h-4.061a1.915,1.915,0,0,1-1.228-.428,1.353,1.353,0,0,1-.508-1.033,1.619,1.619,0,0,1,1.737-1.461h4.061a1.916,1.916,0,0,1,1.228.428,1.353,1.353,0,0,1,.508,1.034,1.616,1.616,0,0,1-1.736,1.461Zm-36.962-6.726h0Zm14.338-12.105-15.538-7.08h-2.652c-6.389,0-11.587-4.373-11.587-9.748s5.2-9.748,11.587-9.748h2.738l15.452-7.041a2.009,2.009,0,0,1,1.715.029,1.432,1.432,0,0,1,.847,1.257v31.047a1.439,1.439,0,0,1-.847,1.257,1.99,1.99,0,0,1-.885.2A2,2,0,0,1-329.326-1428.609Zm-.911-3.743v-26.132l-13.277,6.052a2.014,2.014,0,0,1-1,.169h-3c-4.474,0-8.113,3.062-8.113,6.826s3.639,6.826,8.113,6.826h3.171a1.949,1.949,0,0,1,1.1.33Zm16.073-.776a1.352,1.352,0,0,1-.511-1.033,1.352,1.352,0,0,1,.511-1.033,13.339,13.339,0,0,0,5.044-10.239,13.333,13.333,0,0,0-5.044-10.239,1.352,1.352,0,0,1-.511-1.033,1.352,1.352,0,0,1,.511-1.033,1.979,1.979,0,0,1,2.456,0,16.039,16.039,0,0,1,6.062,12.309,16.038,16.038,0,0,1-6.062,12.309,1.931,1.931,0,0,1-1.226.422h0A1.908,1.908,0,0,1-314.164-1433.128Zm-5.512-5.243a1.908,1.908,0,0,1-1.23-.43,1.352,1.352,0,0,1-.511-1.033,1.352,1.352,0,0,1,.511-1.033,5.946,5.946,0,0,0,2.243-4.566,5.945,5.945,0,0,0-2.243-4.566,1.3,1.3,0,0,1,0-2.066,1.974,1.974,0,0,1,2.456,0,8.639,8.639,0,0,1,3.26,6.636,8.639,8.639,0,0,1-3.26,6.636,1.923,1.923,0,0,1-1.223.422Z" transform="translate(867 1718)" fill="url(#linear-gradient)"/>
  </g>
</svg>
