<svg xmlns="http://www.w3.org/2000/svg" version="1.1" xmlns:xlink="http://www.w3.org/1999/xlink" xmlns:svgjs="http://svgjs.com/svgjs" width="512" height="512" x="0" y="0" viewBox="0 0 511.998 511.998" style="enable-background:new 0 0 512 512" xml:space="preserve" class=""><g><path d="m501.742 252.266-49.744-16.582v-19.191c0-108.074-87.925-195.999-195.999-195.999S60 108.418 60 216.492v19.191l-49.744 16.582A15.002 15.002 0 0 0 0 266.496v160.005a15 15 0 0 0 10.256 14.23L60 457.314v19.191c0 8.284 6.716 15 15 15h29.997c8.284 0 15-6.716 15-15V216.492c0-8.284-6.716-15-15-15H90.685c7.607-84.529 78.839-150.999 165.314-150.999s157.707 66.47 165.315 150.999h-14.313c-8.284 0-15 6.716-15 15v260.013c0 8.284 6.716 15 15 15h29.997c8.284 0 15-6.716 15-15v-19.191l49.744-16.582a15 15 0 0 0 10.256-14.23V266.496a15 15 0 0 0-10.256-14.23z" fill="#fff" data-original="#fff" class=""></path><path d="m271.012 426.474.001.026v30h75.982c8.284 0 15-6.716 15-15v-30h-75.984c-8.263 0-14.985 6.715-14.999 14.974zM226.013 411.5h-76.01v30c0 8.284 6.716 15 15 15h76.008v-30l.001-.026c-.015-8.259-6.737-14.974-14.999-14.974zM241.011 384.083v-126.09c-7.968-7.141-18.482-11.494-29.999-11.494h-46.009c-8.284 0-15 6.716-15 15V381.5h76.01a44.75 44.75 0 0 1 14.998 2.583zM346.995 246.498h-45.983c-11.048 0-22.084 4.013-29.999 10.643v126.941a44.742 44.742 0 0 1 14.998-2.583h75.984V261.498c0-8.284-6.716-15-15-15z" fill="#fff" data-original="#fff" class=""></path></g></svg>