<svg id="Asset_2" data-name="Asset 2" xmlns="http://www.w3.org/2000/svg" width="139.929" height="32.422" viewBox="0 0 139.929 32.422">
  <path id="Path_6" data-name="Path 6" d="M28.617,15.038l-5.906-3.406-4.857,4.7,4.439,4.292,6.324-3.651a1.113,1.113,0,0,0,0-1.927Z" fill="#ffd109"/>
  <path id="Path_7" data-name="Path 7" d="M21.709,11.05,15.209,7.3.966,0,17.053,15.551Z" fill="#06ef79"/>
  <path id="Path_8" data-name="Path 8" d="M1.2,32.422l14.032-7.73,6.056-3.5-4.237-4.1Z" fill="#f93646"/>
  <path id="Path_9" data-name="Path 9" d="M.015.629,0,32.035l16.253-15.71Z" fill="#05d5fb"/>
  <path id="Path_10" data-name="Path 10" d="M42.12,20.545h2.162v4.9a6.883,6.883,0,0,1-2.214,1.16,8.527,8.527,0,0,1-2.6.4,7,7,0,0,1-3.392-.818A6.075,6.075,0,0,1,33.7,23.937a6.572,6.572,0,0,1,0-6.5,6.076,6.076,0,0,1,2.382-2.259,7.106,7.106,0,0,1,3.418-.816,7.472,7.472,0,0,1,2.813.515,5.524,5.524,0,0,1,2.126,1.494L43,17.773a4.622,4.622,0,0,0-3.392-1.411,4.789,4.789,0,0,0-2.312.545,3.965,3.965,0,0,0-1.581,1.529,4.4,4.4,0,0,0-.572,2.25,4.325,4.325,0,0,0,.572,2.215A4.084,4.084,0,0,0,37.3,24.445a4.632,4.632,0,0,0,2.294.562,4.951,4.951,0,0,0,2.531-.632Z"/>
  <path id="Path_11" data-name="Path 11" d="M48.728,26.346a4.49,4.49,0,0,1-1.784-1.714,5.124,5.124,0,0,1,0-4.965,4.509,4.509,0,0,1,1.784-1.705,5.7,5.7,0,0,1,5.148,0,4.51,4.51,0,0,1,1.785,1.7,5.125,5.125,0,0,1,0,4.965,4.491,4.491,0,0,1-1.784,1.714,5.7,5.7,0,0,1-5.148,0ZM53.3,24.271a2.91,2.91,0,0,0,.791-2.126,2.913,2.913,0,0,0-.791-2.127,2.684,2.684,0,0,0-2-.808,2.654,2.654,0,0,0-1.994.808,2.925,2.925,0,0,0-.783,2.127,2.933,2.933,0,0,0,.783,2.126,2.649,2.649,0,0,0,1.994.808A2.69,2.69,0,0,0,53.3,24.271Z"/>
  <path id="Path_12" data-name="Path 12" d="M60.064,26.346a4.491,4.491,0,0,1-1.784-1.714,5.125,5.125,0,0,1,0-4.965,4.509,4.509,0,0,1,1.784-1.705,5.7,5.7,0,0,1,5.148,0A4.51,4.51,0,0,1,67,19.663a5.125,5.125,0,0,1,0,4.965,4.491,4.491,0,0,1-1.784,1.714,5.7,5.7,0,0,1-5.148,0Zm4.57-2.075a2.91,2.91,0,0,0,.791-2.126,2.913,2.913,0,0,0-.791-2.127,2.684,2.684,0,0,0-2-.808,2.654,2.654,0,0,0-1.995.808,2.925,2.925,0,0,0-.782,2.127,2.933,2.933,0,0,0,.782,2.126,2.649,2.649,0,0,0,1.995.808A2.689,2.689,0,0,0,64.634,24.271Z"/>
  <path id="Path_13" data-name="Path 13" d="M79.063,17.451v7.962q0,4.958-5.066,4.958a9.39,9.39,0,0,1-2.566-.343,5.446,5.446,0,0,1-2-1l.984-1.647a4.7,4.7,0,0,0,1.556.816,6.1,6.1,0,0,0,1.907.309,3.144,3.144,0,0,0,2.265-.7,2.873,2.873,0,0,0,.721-2.144v-.492a3.622,3.622,0,0,1-1.371.932,4.846,4.846,0,0,1-1.775.316,5.089,5.089,0,0,1-2.414-.579A4.288,4.288,0,0,1,69.6,24.233a4.806,4.806,0,0,1,0-4.736A4.245,4.245,0,0,1,71.3,17.913a5.156,5.156,0,0,1,2.417-.562,4.959,4.959,0,0,1,1.853.334,3.42,3.42,0,0,1,1.4,1.019V17.451ZM76.1,23.805a2.536,2.536,0,0,0,.8-1.942,2.488,2.488,0,0,0-.8-1.916,3.226,3.226,0,0,0-4.107,0,2.726,2.726,0,0,0,0,3.858,3.2,3.2,0,0,0,4.107,0Z"/>
  <path id="Path_14" data-name="Path 14" d="M81.947,13.794h2.2V26.837h-2.2Z"/>
  <path id="Path_15" data-name="Path 15" d="M95.814,22.848H88.449A2.556,2.556,0,0,0,89.46,24.5a3.32,3.32,0,0,0,2.029.606,3.427,3.427,0,0,0,2.549-1.02l1.177,1.348a3.961,3.961,0,0,1-1.6,1.142,6.323,6.323,0,0,1-4.9-.231,4.428,4.428,0,0,1-1.818-1.714,4.832,4.832,0,0,1-.644-2.482,4.9,4.9,0,0,1,.624-2.471,4.428,4.428,0,0,1,1.731-1.713,5.056,5.056,0,0,1,2.5-.618,4.919,4.919,0,0,1,2.452.606,4.292,4.292,0,0,1,1.688,1.7,5.189,5.189,0,0,1,.607,2.54C95.849,22.35,95.836,22.566,95.814,22.848Zm-6.495-3.12a2.627,2.627,0,0,0-.888,1.661h5.325a2.594,2.594,0,0,0-.861-1.653,2.861,2.861,0,0,0-3.577-.008Z"/>
  <path id="Path_16" data-name="Path 16" d="M110.867,15.062a4.051,4.051,0,0,1,1.82,1.512,4.252,4.252,0,0,1,.632,2.337,4.239,4.239,0,0,1-.632,2.329,4.035,4.035,0,0,1-1.82,1.52,6.788,6.788,0,0,1-2.786.527H105.3v3.55h-2.285v-12.3h5.063A6.805,6.805,0,0,1,110.867,15.062Zm-.624,5.663a2.207,2.207,0,0,0,.773-1.81,2.209,2.209,0,0,0-.775-1.814,3.5,3.5,0,0,0-2.265-.633H105.3v4.887h2.677a3.5,3.5,0,0,0,2.265-.633Z"/>
  <path id="Path_17" data-name="Path 17" d="M115.569,13.794h2.2V26.837h-2.2Z"/>
  <path id="Path_18" data-name="Path 18" d="M127.4,18.339a3.833,3.833,0,0,1,1.1,3v5.5H126.43V25.695a2.55,2.55,0,0,1-1.151.94,4.476,4.476,0,0,1-1.8.325,4.417,4.417,0,0,1-1.845-.36,2.842,2.842,0,0,1-1.221-1,2.536,2.536,0,0,1-.431-1.45,2.482,2.482,0,0,1,.941-2.03,4.671,4.671,0,0,1,2.961-.764H126.3v-.141a1.925,1.925,0,0,0-.589-1.511,2.552,2.552,0,0,0-1.751-.527,5.045,5.045,0,0,0-1.554.246,3.8,3.8,0,0,0-1.293.686l-.861-1.6a5.317,5.317,0,0,1,1.776-.861,7.861,7.861,0,0,1,2.2-.3A4.59,4.59,0,0,1,127.4,18.339Zm-2,6.644a2.062,2.062,0,0,0,.906-1.081v-1.09h-2.265q-1.9,0-1.9,1.248a1.121,1.121,0,0,0,.475.949,2.17,2.17,0,0,0,1.318.352,2.843,2.843,0,0,0,1.465-.378Z"/>
  <path id="Path_19" data-name="Path 19" d="M139.929,17.451l-4.4,10.14a4.734,4.734,0,0,1-1.494,2.154,3.59,3.59,0,0,1-2.126.626,4.4,4.4,0,0,1-1.389-.229,3.064,3.064,0,0,1-1.124-.633l.878-1.617a2.4,2.4,0,0,0,.748.475,2.294,2.294,0,0,0,.87.175,1.5,1.5,0,0,0,.957-.3,2.629,2.629,0,0,0,.694-1l.159-.369-4.1-9.421H131.9L134.85,24.4l2.969-6.943Z"/>
  <path id="Path_20" data-name="Path 20" d="M36.772,7.7a3.042,3.042,0,0,1-1.386-.324,3.674,3.674,0,0,1-1.121-.872,4.109,4.109,0,0,1-.744-1.236,3.9,3.9,0,0,1-.266-1.42,4,4,0,0,1,1-2.666A3.432,3.432,0,0,1,35.369.352a3.226,3.226,0,0,1,1.4-.309A3.284,3.284,0,0,1,38.575.5a2.943,2.943,0,0,1,1.074,1.191l-.733.51a2.219,2.219,0,0,0-.9-.978A2.574,2.574,0,0,0,36.746.905a2.218,2.218,0,0,0-1.042.244,2.507,2.507,0,0,0-.8.665,3.045,3.045,0,0,0-.51.951,3.494,3.494,0,0,0-.176,1.106,3.308,3.308,0,0,0,.2,1.143,2.947,2.947,0,0,0,.562.954,2.67,2.67,0,0,0,.839.642,2.311,2.311,0,0,0,1.03.235,2.471,2.471,0,0,0,1.236-.331,3.742,3.742,0,0,0,1.106-1.01V6.5A3.063,3.063,0,0,1,36.772,7.7Zm2.3-3.089H37.445V3.894H39.88V7.657h-.808Z"/>
  <path id="Path_21" data-name="Path 21" d="M46.457,6.8v.85H41.332V.1h5.029V.95H42.29V3.395h3.54v.8H42.29V6.8Z"/>
  <path id="Path_22" data-name="Path 22" d="M53.208.952H50.6v6.7h-.958V.952h-2.6V.1h6.167Z"/>
  <path id="Path_23" data-name="Path 23" d="M56.664,7.65V.1h.963V7.648Z"/>
  <path id="Path_24" data-name="Path 24" d="M60.385,1.867V7.65h-.957V.1h.808L64.85,6V.112h.957V7.65h-.87Z"/>
  <path id="Path_25" data-name="Path 25" d="M73.367,7.7a3.225,3.225,0,0,1-1.441-.319A3.53,3.53,0,0,1,70.8,6.519a4.068,4.068,0,0,1-.983-2.642,3.888,3.888,0,0,1,.271-1.442,4.007,4.007,0,0,1,.756-1.223,3.635,3.635,0,0,1,1.133-.85A3.209,3.209,0,0,1,73.393.053a3.151,3.151,0,0,1,1.441.329,3.583,3.583,0,0,1,1.119.878A4.154,4.154,0,0,1,76.675,2.5a3.973,3.973,0,0,1-.76,4.057,3.591,3.591,0,0,1-1.133.845,3.258,3.258,0,0,1-1.416.306ZM70.783,3.877a3.361,3.361,0,0,0,.186,1.111,3.057,3.057,0,0,0,.526.951,2.543,2.543,0,0,0,.819.659,2.43,2.43,0,0,0,2.148-.01,2.567,2.567,0,0,0,.813-.681,3.108,3.108,0,0,0,.515-.957,3.4,3.4,0,0,0,.176-1.074,3.336,3.336,0,0,0-.186-1.106,3.12,3.12,0,0,0-.531-.951,2.531,2.531,0,0,0-.824-.66,2.444,2.444,0,0,0-2.131.011,2.5,2.5,0,0,0-.813.674,3.215,3.215,0,0,0-.515.952,3.3,3.3,0,0,0-.182,1.079Z"/>
  <path id="Path_26" data-name="Path 26" d="M79.214,1.867V7.65h-.957V.1h.808L83.676,6V.112h.956V7.65h-.871Z"/>
</svg>
