<svg xmlns="http://www.w3.org/2000/svg" width="710" height="529.688" viewBox="0 0 710 529.688">
  <g id="Image" transform="translate(0 -0.078)">
    <path id="Path_50" data-name="Path 50" d="M707.681,290.965c1.425-20.863,3.428-41.742,1.566-62.6-2.207-24.525-8.076-49.333-19.377-71.338a144.076,144.076,0,0,0-43.823-50.335c-18.578-13.507-39.755-22.976-61.729-29.456-23.477-6.9-47.705-10.549-72-13.617C462.238,51.313,406.238,40.983,349.2,20.7,319.937,10.275,293.486,4.375,269.383,2.778c-4.022-.579-8.045-.986-12.005-1.362A284.6,284.6,0,0,0,222.194.18c-17.216.516-33.963,6.151-49.52,13.491a195.638,195.638,0,0,0-39.285,24.2,159.142,159.142,0,0,0-31.991,34.2,209.708,209.708,0,0,0-21.756,41.962,456.722,456.722,0,0,0-14.994,46.265c-4.7,17.013-9.109,34.1-13.366,51.226-3.3,13.226-6.5,26.482-9.688,39.739Q36.085,268.631,30.638,287.1A529.383,529.383,0,0,0,15.6,351.551C9.478,367.2,2.216,382.713.4,399.663a72.872,72.872,0,0,0,.8,20.785A88.165,88.165,0,0,0,4.72,433.83a94.645,94.645,0,0,0,7.231,15.918A98.856,98.856,0,0,0,24.221,466.7,114.479,114.479,0,0,0,42.8,483.241a144.4,144.4,0,0,0,26.138,14.712,203.9,203.9,0,0,0,35.137,11.6,302.156,302.156,0,0,0,42.822,6.808c52.369,8.186,119.873,10.409,202.324,12.3,69.539,1.565,127.433,1.957,175-2.144q22.209.423,44.356-.892c22.976-1.44,46.375-5.055,67.379-14.947a101.48,101.48,0,0,0,28.266-19.5,108.133,108.133,0,0,0,21.411-31.115c9.391-20,13.679-41.7,16.449-63.5C707.65,367.782,709.372,332.973,707.681,290.965ZM63.256,174.708c4.116-15.433,8.358-30.849,13.554-45.968A250.794,250.794,0,0,1,96.123,84.916,158.639,158.639,0,0,1,124.8,48.59a180.755,180.755,0,0,1,37.563-26.936c14.462-7.826,30.02-14.556,46.3-17.529,11.112-2.019,22.663-1.816,33.948-1.236C151.122,9.712,97.219,87.8,51.095,222.428Q56.964,198.528,63.256,174.708ZM2.967,416.238Zm74.516,82.639a154.709,154.709,0,0,1-27.8-13.9,117.738,117.738,0,0,1-20-15.98A99.107,99.107,0,0,1,16.4,452.393,92.976,92.976,0,0,1,8.32,436.585a90.167,90.167,0,0,1-4.21-13.93c-.407-1.909-.767-3.834-1.049-5.759a1.644,1.644,0,0,0-.078-.611v-.344l-.141-1.205c-.094-.8-.172-1.565-.235-2.411-1.424-17.56,4.914-34.432,11.425-50.381v-.329C3.3,444.567,31.53,484.979,98.064,505.607a206.171,206.171,0,0,1-20.582-6.73Zm496.866-421.9c22.4,5.775,44.1,14.274,63.529,26.967A145.557,145.557,0,0,1,683.7,150.73c12.521,21.129,19.157,45.389,22.287,69.648,2.191,16.935,1.675,33.869.642,50.82C695.8,132.793,626.326,94.057,532.606,68.8a409.888,409.888,0,0,1,41.742,8.186Zm112.689,373.69a116.12,116.12,0,0,1-18.953,32.868,95.558,95.558,0,0,1-26.717,21.739c-20.19,11.191-43.417,15.652-66.189,17.514-9.516.8-19.064,1.252-28.627,1.424,80.636-10.283,127.59-37.2,148.531-100.387A179.493,179.493,0,0,1,687.037,450.671Z" fill="#ffe9e9"/>
    <path id="Path_51" data-name="Path 51" d="M705.976,369.895a39.123,39.123,0,0,0-13.68-19.47c-10.3-7.482-23.9-8.374-36.185-7.263-31.679,2.88-61.416,18.312-89.588,31.819-13.007,6.261-26.044,12.772-39.755,17.342-19.517,6.511-38.768,14.352-58.817,19.1s-39.88,4.961-59.475-1.566A163.1,163.1,0,0,1,359.315,382.9c-30.457-23.993-52.166-56.626-69.507-90.9-8.734-17.216-16.074-35.09-24.416-52.51-7.435-15.557-16.5-30.864-30.254-41.648-13.257-10.408-29.738-15.416-46.344-16.95a142.988,142.988,0,0,0-50.944,4.4c-29.613,8.342-54.78,28.172-75.549,50.3a328.035,328.035,0,0,0-25.34,30.551l-2.207,7.231q6.511-9.2,13.538-17.983c19.486-24.275,42.744-47.048,71.135-60.571a126.773,126.773,0,0,1,45.232-11.55c18.077-1.424,37.031,0,53.778,7.4,34.12,15.166,45.811,53.214,60.4,84.407,15.949,34.183,34.746,67.739,61.745,94.5a186.6,186.6,0,0,0,41.8,31.521c15.338,8.374,32.445,14.963,49.99,16.215,19.5,1.393,38.753-3.521,57.128-9.578,9.531-3.131,18.953-6.621,28.454-9.892,7.184-2.473,14.368-4.695,21.364-7.7,28.814-12.035,55.969-27.843,85.737-37.563,22.491-7.371,58.192-15.541,73.937,8.374a47.086,47.086,0,0,1,6.261,14.837C705.537,373.823,705.819,371.867,705.976,369.895Z" fill="#fff"/>
    <path id="Path_52" data-name="Path 52" d="M413.25,40.075l-6.668-1.753a601.146,601.146,0,0,0-78.1,12.756,328.774,328.774,0,0,0-38.3,11.347,157.54,157.54,0,0,0-30.9,14.822c-12.145,7.826-21.208,19.126-31.428,29.174-13.241,13.006-29.737,25.042-49.129,25.042a50.409,50.409,0,0,1-24.886-6.777c-6.73-3.835-13.319-9.281-16.934-16.246a62.035,62.035,0,0,1-5.619-20.488,127.208,127.208,0,0,1-.783-22.1,12.346,12.346,0,0,1,.125-2.144c-.892,1.08-1.8,2.176-2.692,3.287a107.98,107.98,0,0,0,2.9,31.71,40,40,0,0,0,8.718,17.7,54.179,54.179,0,0,0,20.878,14.086,50.843,50.843,0,0,0,25.512,2.88,64.172,64.172,0,0,0,25.465-10.221,133.975,133.975,0,0,0,22.052-18.922c6.01-6.136,11.692-12.74,18.2-18.344,8.091-6.965,17.7-12.083,27.39-16.371a259.613,259.613,0,0,1,36.952-12.756,554.795,554.795,0,0,1,86.317-15.573Q407.771,40.607,413.25,40.075Z" fill="#fff"/>
    <path id="Path_53" data-name="Path 53" d="M314.709,205.1s-15.135-4.006-13.617-14.274c.235-1.565-7.825-14.227-7.825-14.227s4.7-11.175,8.545-13.115c2.489-1.268,17.311,11.065,17.311,11.065s3.443,25.606,3.38,25.668S314.709,205.1,314.709,205.1Z" fill="#ea8577"/>
    <path id="Path_54" data-name="Path 54" d="M308.949,162.672l-4.038-4.743-2.05,4.414,2.6,4.289Z" fill="#ea8577"/>
    <path id="Path_55" data-name="Path 55" d="M363.964,250.256c-.72-9.891,1.017-18.077,3.9-18.28s5.791,7.637,6.511,17.529-1.19,18.171-4.07,18.375S364.621,260.148,363.964,250.256Z" fill="#6f3d47"/>
    <path id="Path_56" data-name="Path 56" d="M302.635,199.714l-9.9-6.389a6.759,6.759,0,0,1-2.015-9.347l17.955-27.829a6.527,6.527,0,0,1,9.022-1.946l10.337,6.67a6.525,6.525,0,0,1,1.946,9.022l-17.955,27.829a6.761,6.761,0,0,1-9.347,2.016Z" fill="#503c6b"/>
    <path id="Path_57" data-name="Path 57" d="M309.527,200.479,289.1,187.3l20.118-31.182a5.775,5.775,0,0,1,7.995-1.622l10.718,6.915a5.777,5.777,0,0,1,1.722,7.984L309.58,200.513Z" fill="#fff"/>
    <path id="Path_58" data-name="Path 58" d="M310.734,200.845s-.157-7.575,2.911-12a25.647,25.647,0,0,1,7.732-7s2.519-7.936,4.257-10,3.662-2.379,4.163-1.659-1.565,2.442-1.565,4.007a13.119,13.119,0,0,1-.579,4.7c-.673,2.16,0,6.026-1.675,10.956s-3.13,7.482-5.212,8.984S312.1,205.1,310.734,200.845Z" fill="#f8a68b"/>
    <path id="Path_59" data-name="Path 59" d="M302.51,170.366a9.48,9.48,0,1,0,2.575-2.672,9.5,9.5,0,0,0-2.575,2.672Z" fill="#ffe9e9"/>
    <path id="Path_60" data-name="Path 60" d="M307.078,179.52l.762.492a2.472,2.472,0,0,0,3.419-.737l3.242-5.023a2.473,2.473,0,0,0-.736-3.419l-.763-.492a2.472,2.472,0,0,0-3.419.737l-3.242,5.023A2.472,2.472,0,0,0,307.078,179.52Z" fill="#ff5f5f"/>
    <path id="Path_61" data-name="Path 61" d="M371.868,230.739l-33.337,9.782s-15.088-45.044-15.824-51.806c-.36-3.333-8.217,12.521-11.973,12.13,0,0,6.918,65.736,13.178,66.346s49.521-5.384,54.78-9.25S371.868,230.739,371.868,230.739Z" fill="#f8a68b"/>
    <path id="Path_62" data-name="Path 62" d="M366.312,261.635c3.8-10.674,4.038-20.629,1.142-29.6l2.426-.7a5.508,5.508,0,0,1,2.489,2.958l6.135,23.774C376.579,259.318,373.464,260.242,366.312,261.635Z" fill="#ea8577"/>
    <path id="Path_63" data-name="Path 63" d="M409.525,219.329l-42.087,12.709c4.805,4.3,7.826,31.3,3.037,35.842l31.709-11.958Z" fill="#fff"/>
    <path id="Path_64" data-name="Path 64" d="M186.2,318.308,149.275,340.47c-3.819,8.906-3.13,15.652,5.916,17.984l38.8-15.339Z" fill="#f8a68b"/>
    <path id="Path_65" data-name="Path 65" d="M176.665,323.99l2.848,24.838,13.288-5.243Z" fill="#ea8577"/>
    <path id="Path_66" data-name="Path 66" d="M204.54,393.716l-14.587,23.477c-.814,13.726.72,15.479,13.569,11.222l27.546-27.672Z" fill="#f8a68b"/>
    <path id="Path_67" data-name="Path 67" d="M198.091,404.093l16.09,13.616-8.4,12.521s7.826,13.6-5.337,18.547c-3.13,1.174-12.521-.892-19.956,0-8.5,1.018-15.385,4.852-23.367,3.756-14.994-2.065-22.851-4.836-23.806-11.331s12.741-2.833,23.133-6.589c14.086-5.071,28.172-15.933,30.771-17.937C191.815,413.264,198.091,404.093,198.091,404.093Z" fill="#fff"/>
    <path id="Path_68" data-name="Path 68" d="M372.6,250.35l15.871-6.448,2.8,14.931-5.963,3.443-14.837,5.6C372.838,265.657,373.307,258.035,372.6,250.35Z" fill="#cbe3ff"/>
    <path id="Path_69" data-name="Path 69" d="M202.521,396.987l15.713,16.528,3.9-3.835Z" fill="#ea8577"/>
    <path id="Path_70" data-name="Path 70" d="M165.38,330.8c1.816,6.37,3.365,13.319,5.494,21.458l-12.412,6.479S151,373.886,140.135,370.443s-6.809-11.191-9.845-24.041c-2.16-9.2-5.212-19.314-4.476-28.344.986-11.989,8.983-22.616,15.275-20.488s2.865,11.879,3.866,21.912a32.067,32.067,0,0,0,8.374,18.03Z" fill="#fff"/>
    <path id="Path_71" data-name="Path 71" d="M434.316,191.188l7,24.182s-28.172,32.507-38.6,28.688,16.137-27.828,16.137-27.828l-5.2-14.821S424.5,186.947,434.316,191.188Z" fill="#f8a68b"/>
    <path id="Path_72" data-name="Path 72" d="M417.835,213.538l-2.41-6.871c6.839-4.21,20.753-7.59,20.753-7.59S429.73,212.74,417.835,213.538Z" fill="#ea8577"/>
    <path id="Path_73" data-name="Path 73" d="M421.2,341.065s3.787-12.521,18.985-39.488,33.431-49.192,28.892-62.245-27.765-23.962-27.765-23.962-13.179,13.773-21.912,11.66-.485-10.8-.485-10.8-10.3,1.566-22.178,10.315c-2.192,1.565-5.337,3.693-5.729,5.368s-3.13,9.829-4.883,11.989c-6.542,7.826-10.236,12.411-12.161,17.545-1.565,8.953.344,13.726-.955,18.782C370.8,288.8,351.756,314.1,351.756,314.1Z" fill="#fff"/>
    <path id="Path_74" data-name="Path 74" d="M433.221,196.651s-6.637,13.538-18.375,13.867-14.837-2.348-15.495-4.7,5.353-13.961,5.353-13.961-4.805-2.332-4.7-4.069c.094-1.049,10.955-12.13,10.955-12.13l4.946-9.75s4.4-9.673,18.25,0S433.221,196.651,433.221,196.651Z" fill="#f8a68b"/>
    <path id="Path_75" data-name="Path 75" d="M463.819,261.635,441.2,290.7l-8.123-1.581L395.6,312.11l41.179,7.075,30.16-41.148Z" fill="#cbe3ff"/>
    <path id="Path_76" data-name="Path 76" d="M440.843,291.184a.182.182,0,0,0,.117-.013.185.185,0,0,0,.086-.08l13.93-18.015a.235.235,0,0,0,0-.329.251.251,0,0,0-.344,0l-13.915,18.031a.231.231,0,0,0-.067.164.235.235,0,0,0,.067.164.17.17,0,0,0,.054.053A.167.167,0,0,0,440.843,291.184Z" fill="#779fff"/>
    <path id="Path_77" data-name="Path 77" d="M427.758,280.714c-4.507-7.576-6.167-14.916-3.678-16.387s8.123,3.474,12.631,11.05,6.166,14.9,3.693,16.371S432.266,288.273,427.758,280.714Z" fill="#6f3d47"/>
    <path id="Path_78" data-name="Path 78" d="M431.624,187.636s-13.742-.423-16.23-8.343a12.414,12.414,0,0,0-1.033-1.565s1.815-2.41.36-3.443a7.533,7.533,0,0,1,3.13-5.9l19.032,10.111Z" fill="#ea8577"/>
    <path id="Path_79" data-name="Path 79" d="M383.262,278.225a16.061,16.061,0,0,1-10.08.376c.5-3.8-.156-8.608.173-14.274a21.342,21.342,0,0,0,4.022,4.9C382.385,273.561,386.721,276.754,383.262,278.225Z" fill="#cbe3ff"/>
    <path id="Path_80" data-name="Path 80" d="M428.212,257.049c-10.455,10.831-19.6,9.766-24.009,19.846s-1.706,19.141-19.689,20.738c2.645.829,10.956-8.546,21.911-17.811a213.846,213.846,0,0,0,21.787-22.773Z" fill="#cbe3ff"/>
    <path id="Path_81" data-name="Path 81" d="M429.449,316.868c-19.345-7.168-43.167-13.569-67-13.742l-14.931,23.916,46.422,17.529Z" fill="#4a76d1"/>
    <path id="Path_82" data-name="Path 82" d="M419.557,190.656c-.36,1.284,1.1,2.817,3.239,3.412s4.179,0,4.539-1.236-1.08-2.817-3.24-3.412S419.917,189.451,419.557,190.656Z" fill="#ea8577"/>
    <path id="Path_83" data-name="Path 83" d="M412.827,175.991l-.61,5.274s2.613,2.755,4.945,3.131a17.4,17.4,0,0,0,3.491.3l.125-4.492Z" fill="#ea8577"/>
    <path id="Path_84" data-name="Path 84" d="M406.88,199.624c-.094.486.829,1.08,2.066,1.331s2.316,0,2.41-.423-.908-.657-2.144-.908S406.88,199.139,406.88,199.624Z" fill="#ea8577"/>
    <path id="Path_85" data-name="Path 85" d="M400.1,187.761c-.3.438.72,1.565,2.254,2.723s3.037,1.565,3.334,1.158-.8-1.189-2.348-2.269S400.4,187.338,400.1,187.761Z" fill="#ea8577"/>
    <path id="Path_86" data-name="Path 86" d="M440.811,284.454s-16.387,22.382-42.978,29.159-52.4-21.677-55.406-24.87,4.586-13.554,4.586-13.554-.829-4.21.125-4.977,7.294-1.722,9-.485a37.726,37.726,0,0,1,5.008,6.088,8.494,8.494,0,0,1,4.148,1.675c2,1.565-1.033,9.75-1.033,9.75s7.826,4.962,16.434,2.426,14.383-.2,14.383-.2l29.253-27.828C434.457,266.878,439.606,279.055,440.811,284.454Z" fill="#f8a68b"/>
    <path id="Path_87" data-name="Path 87" d="M396.346,310.8c-1.142-2.879.986-6.417,4.695-7.9s7.748-.376,8.875,2.5a5.672,5.672,0,0,1,0,3.834,60.41,60.41,0,0,1-11.113,4.1,4.7,4.7,0,0,1-2.457-2.536Z" fill="#ea8577"/>
    <path id="Path_88" data-name="Path 88" d="M424.346,261.619c6.542,10.455,11.77,19.877,12.114,27.969a36.319,36.319,0,0,0,4.351-5.071,32.862,32.862,0,0,0-16.465-22.9Z" fill="#ea8577"/>
    <path id="Path_89" data-name="Path 89" d="M347.013,275.189l4.038-3.209s-2.582-1.189-3.474-.407S347.013,275.189,347.013,275.189Z" fill="#ea8577"/>
    <path id="Path_90" data-name="Path 90" d="M427.837,218.656c-3.021,1.362-5.322,1.472-6.433-.469a1.878,1.878,0,0,0,1.377,2.88C425.379,221.661,427.837,218.656,427.837,218.656Z" fill="#ea8577"/>
    <path id="Path_91" data-name="Path 91" d="M361.1,275.815l1.69,5.728s1.127-2.441.407-3.85a4.134,4.134,0,0,0-2.1-1.878Z" fill="#ea8577"/>
    <path id="Path_92" data-name="Path 92" d="M424.3,261.635l15.839-18.469a.244.244,0,0,1,.079-.055.23.23,0,0,1,.094-.02.237.237,0,0,1,.094.02.251.251,0,0,1,.078.4l-15.745,18.374Z" fill="#779fff"/>
    <path id="Path_93" data-name="Path 93" d="M416.489,326.822s-123.128-62.433-133.255-64.248,31.1,76.582,68.506,93.454S416.489,326.822,416.489,326.822Z" fill="#779fff"/>
    <path id="Path_94" data-name="Path 94" d="M282.42,262.636,177.494,323.614l20.128,19.11,102.672-39.472Z" fill="#779fff"/>
    <path id="Path_95" data-name="Path 95" d="M295.755,292.953l4.539,10.3L197.622,342.724l-4.445-4.226c6.26-4.523,68.646-49.223,82.952-49.364C279.541,289.1,286.724,290.621,295.755,292.953Z" fill="#5587f0"/>
    <path id="Path_96" data-name="Path 96" d="M293.689,292.421c30.348,7.685,109.747,54.2,109.747,54.2l-46.109,11.488a46.174,46.174,0,0,1-5.587-2.081C330.188,346.261,307.2,315.929,293.689,292.421Z" fill="#5587f0"/>
    <path id="Path_97" data-name="Path 97" d="M275.409,291.012a74.4,74.4,0,0,0-10.377,11.222c-3.976,5.525-8.8,12.521-13.945,20.143-20.551,30.458-46.485,71.339-46.485,71.339l28.329,9.093,58.645-57.33S327.23,367,356.8,362.867c9.8-1.361,8-11.441-4.82-21.379a208.49,208.49,0,0,0-23.352-21.161C307.024,302.813,282.389,286.692,275.409,291.012Z" fill="#779fff"/>
    <path id="Path_98" data-name="Path 98" d="M221.365,397.926s49.833-76.691,62.84-79.618,58.363,42.6,58.363,42.6L329.8,373.432c-23.242-.3-38.283-28-38.283-28l-58.646,57.33Z" fill="#5587f0"/>
    <path id="Path_99" data-name="Path 99" d="M406.128,344.023l.235-.422c-.955-.564-97.038-55.907-123.473-57.222-11.1-.547-30.05,7.294-56.345,23.29-19.564,11.91-36,24.134-36.248,24.259l.3.391c.157-.125,16.669-12.333,36.2-24.228,25.84-15.729,45.232-23.774,56.078-23.226C309.153,288.179,405.158,343.46,406.128,344.023Z" fill="#3849c9"/>
    <path id="Path_100" data-name="Path 100" d="M220.379,393.325c2.285-2,56.219-48.973,57.205-53.215a16.434,16.434,0,0,0-.516-6.26c-.642-3.13-1.252-6.261.688-7.341a.963.963,0,0,1,.814-.094c1.111.439,1.972,3.131,2.8,5.776s1.706,5.4,2.974,5.932a1.254,1.254,0,0,0,1.079,0c1.722-.846,1.894-4.258,2.082-7.826s.391-7.309,2.27-7.309a1.043,1.043,0,0,1,.782.328c1.143,1.143,1.08,4.978,1.049,8.358,0,3.929-.094,7.325,1.408,7.685s2.833-1.44,4.2-3.334,2.817-3.866,4.4-3.427c3.13.876,28.83,27.076,38.815,40.286l.391-.282c-10.251-13.569-35.747-39.55-39.128-40.474-1.894-.532-3.427,1.565-4.914,3.616-1.268,1.753-2.473,3.412-3.694,3.13s-1.08-3.944-1.033-7.184c0-3.647.094-7.419-1.174-8.7a1.561,1.561,0,0,0-1.142-.485c-2.348,0-2.536,3.772-2.739,7.825-.188,3.3-.36,6.73-1.816,7.466a.819.819,0,0,1-.689,0c-1.064-.438-1.893-3.13-2.692-5.619-.907-2.864-1.768-5.572-3.13-6.088a1.378,1.378,0,0,0-1.221.125c-2.253,1.3-1.565,4.492-.923,7.826a16.39,16.39,0,0,1,.516,6.119c-.767,3.318-37.657,36.123-57.064,53.011Z" fill="#3849c9"/>
    <path id="Path_101" data-name="Path 101" d="M418.962,184.834h.626a.485.485,0,0,0,.211-.008.484.484,0,0,0,.361-.469.487.487,0,0,0-.045-.206.5.5,0,0,0-.129-.167.507.507,0,0,0-.187-.1.5.5,0,0,0-.211-.008,6.679,6.679,0,0,1-6.573-2.974.486.486,0,0,0-.673-.125.5.5,0,0,0-.125.689,7.446,7.446,0,0,0,6.745,3.365Z" fill="#522d34"/>
    <path id="Path_102" data-name="Path 102" d="M466.761,182.392c-.86,5.65.955,11.254.72,16.919a15.65,15.65,0,0,1-2.019,7.607,11.689,11.689,0,0,1-13.225,5.2c-.36-.109-.25-.7.125-.6a11.236,11.236,0,0,0,12.615-4.961c2.77-4.695,1.91-10.346,1.331-15.432a32.854,32.854,0,0,1-.141-8.859c0-.391.641-.266.594.125Z" fill="#783238"/>
    <path id="Path_103" data-name="Path 103" d="M446.947,165.16a9.392,9.392,0,0,1,8.592-1.033,15.747,15.747,0,0,1,7.623,6.261,5.883,5.883,0,0,1,1.158,5.055c-.125.376-.72.251-.6-.109.673-2-.532-3.96-1.706-5.494a16.621,16.621,0,0,0-4.351-4.085,9.393,9.393,0,0,0-10.393-.141c-.313.235-.657-.282-.328-.5Z" fill="#783238"/>
    <path id="Path_104" data-name="Path 104" d="M448.167,164.268c-9.156,18.187-19.282,39.238-26.967,43.2-.156,3.02,15.323,7.043,31.96,5.1s17.326-33.666,9.485-41.648S448.167,164.268,448.167,164.268Z" fill="#783238"/>
    <path id="Path_105" data-name="Path 105" d="M431.249,200.25c.594,3.131,29.862,6.1,31.756-18.077.61-16.481-14.837-17.9-14.837-17.9s-8.233-17.842-23.618-16.512-19.971,15.651-19.408,21.912,3.569,7.825,3.569,7.825a10.724,10.724,0,0,1,4.773-7.293c4.117-2.332,4.555-1.753,4.555-1.753a9.391,9.391,0,0,0-2.52,9c1.2,5.916,13.288,7.825,13.288,7.825l-2.708-2.723a28.179,28.179,0,0,0,8.922.751C436.789,191.016,435.631,194.976,431.249,200.25Z" fill="#783238"/>
    <path id="Path_106" data-name="Path 106" d="M453.191,200.892c6.683,1.471,10.831-.97,13.367-3.96-1.738,7.983-5.979,14.775-13.4,15.652-16.637,1.94-32.116-2.082-31.96-5.1,4.132-2.128,8.968-9.2,13.977-18.108A30.752,30.752,0,0,0,453.191,200.892Z" fill="#6a2c31"/>
    <path id="Path_107" data-name="Path 107" d="M429.844,200.457l1.953,1.358a6.59,6.59,0,0,0,9.171-1.652l2.947-4.242a6.588,6.588,0,0,0-1.652-9.171l-1.953-1.357a6.588,6.588,0,0,0-9.171,1.652l-2.947,4.241A6.588,6.588,0,0,0,429.844,200.457Z" fill="#5587f0"/>
    <path id="Path_108" data-name="Path 108" d="M434.958,202.489l-5.259-3.647a2.364,2.364,0,0,1-.579-3.271l5.525-7.951a2.367,2.367,0,0,1,1.565-.955,2.253,2.253,0,0,1,1.753.376l5.243,3.647a2.349,2.349,0,0,1,.6,3.255l-5.619,8.029a2.309,2.309,0,0,1-1.565.97,2.688,2.688,0,0,1-.877,0,2.225,2.225,0,0,1-.782-.453Zm1.283-15.354a1.842,1.842,0,0,0-1.2.767l-5.525,7.95a1.864,1.864,0,0,0,.47,2.583l5.243,3.647a1.914,1.914,0,0,0,1.393.313,1.831,1.831,0,0,0,.674-.27,1.81,1.81,0,0,0,.515-.513l5.525-7.951a1.847,1.847,0,0,0-.454-2.645l-5.259-3.647a2.107,2.107,0,0,0-.688-.3,2.05,2.05,0,0,0-.689.063Z" fill="#503c6b"/>
    <path id="Path_109" data-name="Path 109" d="M441.437,187.416a.7.7,0,0,0,.767-.344s2.911-4.836,5.509-10.236c3.553-7.387,4.915-12.364,4.038-14.806-.563-1.565-1.408-2.379-2.551-2.551a4.448,4.448,0,0,0-3.13,1.1l.783,1.237a3.237,3.237,0,0,1,2.16-.892c.563.094,1.032.626,1.377,1.565,1.565,4.163-6.261,18.594-9.391,23.79a.718.718,0,0,0-.1.268.721.721,0,0,0,.136.544.73.73,0,0,0,.213.19.539.539,0,0,0,.188.14Z" fill="#5587f0"/>
    <path id="Path_110" data-name="Path 110" d="M442.047,192.832a31.082,31.082,0,0,1-2.676,3.568c-.266.282-.72-.109-.454-.407a30.768,30.768,0,0,0,2.6-3.427.313.313,0,0,1,.407-.141C442.048,192.425,442.141,192.707,442.047,192.832Z" fill="#fff"/>
    <path id="Path_111" data-name="Path 111" d="M438.182,197.965l-.876,1.268a.383.383,0,0,1-.2.11.342.342,0,0,1-.219,0,.3.3,0,0,1-.088-.212.3.3,0,0,1,.023-.114.3.3,0,0,1,.065-.1l.877-1.283a.37.37,0,0,1,.2-.11.342.342,0,0,1,.219,0,.311.311,0,0,1,0,.438Z" fill="#fff"/>
    <path id="Path_112" data-name="Path 112" d="M448.308,165.833a23.617,23.617,0,0,0-5.039-10.69c-2.771-3.3-6.95-6.5-11.52-5.509-.375.094-.579-.485-.188-.563a11.39,11.39,0,0,1,9.845,3.287,23.945,23.945,0,0,1,5.838,8.044,23.48,23.48,0,0,1,1.675,5.4c0,.376-.532.423-.611,0Z" fill="#783238"/>
    <path id="Path_113" data-name="Path 113" d="M364.84,353.915l.344-.345c-.156-.172-16.606-16.684-35.606-32.7-25.559-21.521-43.323-31.913-52.808-30.9-6.135,2.035-19.548,22.35-25.793,32.226l.783-.3c6.354-10,19.329-29.487,25.136-31.475C299.183,288.132,364.2,353.242,364.84,353.915Z" fill="#3849c9"/>
    <path id="Path_114" data-name="Path 114" d="M420.871,180.483c0,.094-7.919-2.3-8.608-3.772s-.219-3.913,2.551-2.363S420.965,179.747,420.871,180.483Z" fill="#6a2c31"/>
    <path id="Path_115" data-name="Path 115" d="M300.857,161.748c-.093,2.348.861,4.273,2.129,4.32s2.332-1.815,2.426-4.163.313-4.852-2.129-4.336S300.936,159.4,300.857,161.748Z" fill="#f8a68b"/>
    <path id="Path_116" data-name="Path 116" d="M297.148,166.428c.3,2.661,1.565,4.7,2.817,4.555s2.019-2.411,1.706-5.071-.485-5.525-2.8-4.571S296.851,163.767,297.148,166.428Z" fill="#f8a68b"/>
    <path id="Path_117" data-name="Path 117" d="M293.392,171.217c.282,2.583,1.565,4.57,2.77,4.43s2.035-2.332,1.769-4.915-.454-5.353-2.77-4.429S293.11,168.635,293.392,171.217Z" fill="#f8a68b"/>
    <path id="Path_118" data-name="Path 118" d="M291.8,178.12c.766,2.206,2.222,3.693,3.286,3.333s1.284-2.441.533-4.7-1.44-4.6-3.272-3.334S291.06,175.928,291.8,178.12Z" fill="#f8a68b"/>
    <path id="Path_119" data-name="Path 119" d="M232.853,402.809l-20.848-20.785-9.484,14.963L219.94,412.2Z" fill="#4a76d1"/>
    <path id="Path_120" data-name="Path 120" d="M197.622,342.724l-7.5-26.7-13.46,7.967,6.949,23.226Z" fill="#4a76d1"/>
    <path id="Path_121" data-name="Path 121" d="M413.14,197.527a14.33,14.33,0,0,0,2.489-.219.243.243,0,0,0,.086-.029.219.219,0,0,0,.1-.146.215.215,0,0,0,0-.091.227.227,0,0,0-.03-.092.249.249,0,0,0-.065-.072.229.229,0,0,0-.089-.039.244.244,0,0,0-.1,0,11.58,11.58,0,0,1-9.391-2.1.219.219,0,0,0-.329,0,.253.253,0,0,0,0,.345,11.16,11.16,0,0,0,7.325,2.441Z" fill="#522d34"/>
    <path id="Path_122" data-name="Path 122" d="M429.5,229.471a23.094,23.094,0,0,1-10.424,2.113,7.49,7.49,0,0,1-4.32-1.659,7.827,7.827,0,0,1-2.332-3.6,11.218,11.218,0,0,1,1.174-8.717l.83-.266a11.388,11.388,0,0,0-1.659,7.966,7.638,7.638,0,0,0,2.034,3.835,6.841,6.841,0,0,0,4.477,1.862,22.962,22.962,0,0,0,9.672-1.956,36.208,36.208,0,0,0,8.921-5.29,53.575,53.575,0,0,0,6.856-6.589l.547.3a44.425,44.425,0,0,1-15.776,12Z" fill="#779fff"/>
    <path id="Path_123" data-name="Path 123" d="M471.66,161.952a2.567,2.567,0,1,1-.543-1.882A2.566,2.566,0,0,1,471.66,161.952Z" fill="#503c6b"/>
    <path id="Path_124" data-name="Path 124" d="M479.063,160.152a2.549,2.549,0,1,1-.543-1.876,2.554,2.554,0,0,1,.543,1.876Z" fill="#503c6b"/>
    <path id="Path_125" data-name="Path 125" d="M471.347,162.343h-.109a.386.386,0,0,1-.142-.04.38.38,0,0,1-.115-.092.37.37,0,0,1-.071-.129.38.38,0,0,1-.017-.146l.8-10.205a.377.377,0,0,1,.344-.344l8.123-.767a.423.423,0,0,1,.3.125.33.33,0,0,1,.089.144.323.323,0,0,1,0,.169l-1.565,9.235a.39.39,0,0,1-.438.3.337.337,0,0,1-.138-.046.346.346,0,0,1-.163-.232.333.333,0,0,1,0-.144l1.424-8.75-7.325.673L471.582,162a.354.354,0,0,1-.062.209A.36.36,0,0,1,471.347,162.343Z" fill="#503c6b"/>
    <path id="Path_126" data-name="Path 126" d="M473.131,129.976a2.363,2.363,0,1,1-1.366-1.125,2.372,2.372,0,0,1,1.366,1.125Z" fill="#503c6b"/>
    <path id="Path_127" data-name="Path 127" d="M472.8,130.321a.362.362,0,0,1-.392-.173l-4.7-8.185a.407.407,0,0,1,0-.376.364.364,0,0,1,.313-.188,6.84,6.84,0,0,1,5.337,1.785.365.365,0,0,1,.082.122.369.369,0,0,1,.028.144.377.377,0,0,1-.028.144.386.386,0,0,1-.082.122.393.393,0,0,1-.258.1.4.4,0,0,1-.259-.1,5.914,5.914,0,0,0-4.21-1.565l4.414,7.653a.39.39,0,0,1,.032.286.394.394,0,0,1-.173.231Z" fill="#503c6b"/>
    <path id="Path_128" data-name="Path 128" d="M489.643,143.608a2.16,2.16,0,1,1-2.535-1.721,2.174,2.174,0,0,1,2.535,1.721Z" fill="#503c6b"/>
    <path id="Path_129" data-name="Path 129" d="M496.718,138.663a2.176,2.176,0,1,1-.913-1.383,2.168,2.168,0,0,1,.913,1.383Z" fill="#503c6b"/>
    <path id="Path_130" data-name="Path 130" d="M489.268,143.843a.359.359,0,0,1-.423-.281l-2.285-9.986a.373.373,0,0,1,.034-.25.38.38,0,0,1,.185-.173l7.528-3.13a.423.423,0,0,1,.313,0,.356.356,0,0,1,.132.1.367.367,0,0,1,.072.15l1.847,8.263a.388.388,0,0,1,.005.148.377.377,0,0,1-.051.138.385.385,0,0,1-.1.108.373.373,0,0,1-.135.06.333.333,0,0,1-.144.005.349.349,0,0,1-.135-.052.357.357,0,0,1-.1-.1.361.361,0,0,1-.055-.133l-1.769-7.826-6.824,2.848,2.207,9.673a.364.364,0,0,1,.006.147.377.377,0,0,1-.052.139.381.381,0,0,1-.236.168Z" fill="#503c6b"/>
    <path id="Path_131" data-name="Path 131" d="M487.64,136.565a.376.376,0,0,1-.256-.048.372.372,0,0,1-.163-.2.384.384,0,0,1,.008-.261.379.379,0,0,1,.176-.192l7.466-3.365a.378.378,0,0,1,.511.477.385.385,0,0,1-.2.212l-7.466,3.365Z" fill="#503c6b"/>
    <path id="Path_132" data-name="Path 132" d="M390.226,234.589a20.341,20.341,0,0,1-3.8,9.391c-2.019,2.927-4.539,5.431-6.714,8.233a35.727,35.727,0,0,0-5.322,8.905,13.872,13.872,0,0,0-.86,4.054,54,54,0,0,0-.235,5.744c0,3.772,1.455,7.982-.626,11.457a.31.31,0,0,1-.187.137.3.3,0,0,1-.365-.222.3.3,0,0,1,.035-.228c1.878-3.131.689-6.918.564-10.314a53.1,53.1,0,0,1,.125-5.7,17.468,17.468,0,0,1,.657-4.225A31.427,31.427,0,0,1,378,253.48c2.05-2.864,4.523-5.368,6.667-8.138a21.443,21.443,0,0,0,4.946-10.737c0-.376.657-.391.61,0Z" fill="#779fff"/>
    <path id="Path_133" data-name="Path 133" d="M224.213,463.975s-15.651-60.54,21.662-98.4,109.371-14.086,141.613-28.548,45.06-30.723,61.994-50.209,15.558-48.1,33.807-35.795,55.7,68.412,52.228,124.459-37.672,88.493-37.672,88.493Z" fill="#faa"/>
    <path id="Path_134" data-name="Path 134" d="M205.776,430.246s7.826,13.6-5.337,18.547c-1.909.7-6.057.235-10.69,0C190.892,439.324,196.949,433.689,205.776,430.246Z" fill="#98bfff"/>
    <path id="Path_135" data-name="Path 135" d="M142.373,436.741c4.977,1.925,9.891,7.826,8.295,14.728-10.768-1.988-16.5-4.82-17.295-10.3C132.794,437.586,136.832,437.133,142.373,436.741Z" fill="#98bfff"/>
    <path id="Path_136" data-name="Path 136" d="M192.457,411.418l3.334,2.269a61.024,61.024,0,0,0,4.883-7.4l.469.407a61.326,61.326,0,0,1-4.867,7.34c1.111.767,2.222,1.565,3.318,2.364a52.821,52.821,0,0,0,4.789-6.965l.47.391a55.212,55.212,0,0,1-4.7,6.918l2.786,2.05c1.722-2.1,3.318-4.288,4.821-6.542l.469.391c-1.565,2.239-3.13,4.43-4.8,6.511l3.474,2.661a40.324,40.324,0,0,0,4.242-6.7l.485.392a41.364,41.364,0,0,1-4.257,6.683l2.52,2-.345.5q-8.42-6.777-17.435-12.8Z" fill="#98bfff"/>
    <path id="Path_137" data-name="Path 137" d="M169.841,348.249a3.05,3.05,0,0,0,.156.6l-7.012,3.553c.267,1.189.548,2.363.846,3.537l-.564.3q-2.629-10.768-4.554-21.708l.547-.313.423,2.316a61.153,61.153,0,0,1,6.261-3.647,3.032,3.032,0,0,0,.156.6,60.393,60.393,0,0,0-6.26,3.694c.14.829.3,1.643.453,2.457,2.16-1.2,4.351-2.332,6.574-3.412a2.983,2.983,0,0,0,.156.611c-2.238,1.079-4.429,2.222-6.6,3.427.187.986.391,1.972.594,2.958a42.6,42.6,0,0,1,6.856-3.13l.141.579a43.6,43.6,0,0,0-6.871,3.13c.25,1.284.532,2.552.8,3.819l6.871-3.678a2.217,2.217,0,0,0,.156.611l-6.886,3.693q.375,1.768.8,3.522Z" fill="#98bfff"/>
    <path id="Path_138" data-name="Path 138" d="M156.709,361.693c-2.833,4.226-8.843,11.207-16.574,8.75-8.233-2.6-7.826-7.7-8.577-15.652C140.589,351.191,152.781,355.762,156.709,361.693Z" fill="#98bfff"/>
    <path id="Path_139" data-name="Path 139" d="M141.089,297.57c3.8,1.284,4.054,5.337,3.882,10.565-3.96,6.526-10.627,8.232-18.782,7.215C128.005,304.519,135.267,295.6,141.089,297.57Z" fill="#98bfff"/>
    <path id="Path_140" data-name="Path 140" d="M530.525,405.439c-10.44,37.563-32.649,58.614-32.649,58.614H224.213s-7.246-59.569,60.336-71.855,63.669,31.381,141.253,44.669C470.7,444.473,506.39,428.446,530.525,405.439Z" fill="#f98c8c"/>
    <path id="Path_141" data-name="Path 141" d="M125.156,464.46h490.59a.489.489,0,0,0,.343-.142.48.48,0,0,0,.1-.158.486.486,0,0,0-.448-.671H125.156a.485.485,0,0,0-.185.037.5.5,0,0,0-.158.105.485.485,0,0,0-.105.529.48.48,0,0,0,.105.158.5.5,0,0,0,.158.105A.485.485,0,0,0,125.156,464.46Z" fill="#3e2e53"/>
    <path id="Path_142" data-name="Path 142" d="M220.77,415.847a80.408,80.408,0,0,1,14.4-38.659,82.352,82.352,0,0,1,31.3-26.857c15.338-7.372,32.554-8.875,49.348-8.875,9.141,0,18.281.345,27.421.548,9.391.219,18.876.36,28.329.329a465.206,465.206,0,0,0,56.2-3.13c2.379-.3,4.7-.626,7.137-.971,1.565-.235,2.191,2.1.642,2.332a423.25,423.25,0,0,1-55.281,4.117c-18.468.281-36.921-.314-55.39-.7-17.216-.36-35.043-.141-51.4,6.026a80.161,80.161,0,0,0-49.568,60.79c-.282,1.674-.485,3.365-.642,5.055s-2.567,1.565-2.426,0Z" fill="#ff5f5f"/>
    <path id="Path_143" data-name="Path 143" d="M365.075,343.147q21.16-7.232,42.086-15.057t41.648-16.23q11.582-4.695,23.07-9.579a1.237,1.237,0,0,1,1.659.423,1.223,1.223,0,0,1-.438,1.659q-20.707,8.811-41.664,17.013t-41.773,15.729q-11.912,4.273-23.868,8.374a1.212,1.212,0,0,1-.658-2.332Z" fill="#ff5f5f"/>
    <path id="Path_144" data-name="Path 144" d="M402.059,329.467q14.508-10.548,28.7-21.489t27.875-22.052q7.826-6.355,15.542-12.834a1.219,1.219,0,0,1,1.706,0,1.186,1.186,0,0,1,0,1.7q-13.773,11.583-27.859,22.757t-28.533,22.022q-8.059,6.057-16.214,11.989a1.216,1.216,0,0,1-.448.156,1.2,1.2,0,0,1-.473-.029,1.183,1.183,0,0,1-.426-.208,1.2,1.2,0,0,1-.312-.358,1.236,1.236,0,0,1,.438-1.659Z" fill="#ff5f5f"/>
    <path id="Path_145" data-name="Path 145" d="M81.5,338.827l.924-.266a85.657,85.657,0,0,1-2.661-23.79,82.092,82.092,0,0,1,16.59-48.8l-.767-.6a83.064,83.064,0,0,0-16.825,49.412,86.085,86.085,0,0,0,2.739,24.04Z" fill="#fff"/>
    <path id="Path_146" data-name="Path 146" d="M94.574,267.989s15.181-5.118,21.176-13.491-4.335-13.069-14.744-1.894S94.574,267.989,94.574,267.989Z" fill="#fff"/>
    <path id="Path_147" data-name="Path 147" d="M88.814,276.785c0-.109,4.789-32.867-3.553-25.95s1.205,30.74,1.205,30.74Z" fill="#fff"/>
    <path id="Path_148" data-name="Path 148" d="M82.742,291.638c.767-.2,29.972-5.071,28.375-13.225s-25.59,5.337-25.59,5.337Z" fill="#fff"/>
    <path id="Path_149" data-name="Path 149" d="M79.345,321.3s30.661-15.119,26.012-23.852-25.84,11.817-25.84,11.817Z" fill="#fff"/>
    <path id="Path_150" data-name="Path 150" d="M81.192,295.629s-2.645-30.5-9.516-22.146,8.092,32.586,8.092,32.586Z" fill="#fff"/>
    <path id="Path_151" data-name="Path 151" d="M592.284,250.929a104.854,104.854,0,0,0,2.9-29.268A100.979,100.979,0,0,0,573.847,161.9l-.767.6a100.076,100.076,0,0,1,21.13,59.161,104.478,104.478,0,0,1-2.849,28.987Z" fill="#fff"/>
    <path id="Path_152" data-name="Path 152" d="M575.225,164.988s-18.563-5.947-26.013-16.027,5.024-15.98,17.905-2.551S575.225,164.988,575.225,164.988Z" fill="#fff"/>
    <path id="Path_153" data-name="Path 153" d="M582.393,175.584c-.078-.125-6.433-39.926,3.835-31.616s-.908,37.407-.908,37.407Z" fill="#fff"/>
    <path id="Path_154" data-name="Path 154" d="M590,193.552c-.939-.235-36.561-5.619-34.745-15.652s31.208,6.042,31.208,6.042Z" fill="#fff"/>
    <path id="Path_155" data-name="Path 155" d="M594.7,229.581s-37.563-17.843-32.07-28.5,31.647,13.883,31.647,13.883Z" fill="#fff"/>
    <path id="Path_156" data-name="Path 156" d="M592,198.388s2.661-37.156,11.159-27.108-9.39,39.785-9.39,39.785Z" fill="#fff"/>
    <path id="Path_157" data-name="Path 157" d="M328.169,171.906a3.133,3.133,0,0,0,.141,1.894,1.6,1.6,0,0,0,0,.391v.344c-.829-.422-.8-1.565-.72-2.394a6.907,6.907,0,0,1,.47-2.113,2.677,2.677,0,0,1,.782-.188A4.963,4.963,0,0,0,328.169,171.906Z" fill="#ea8577"/>
    <path id="Path_158" data-name="Path 158" d="M327.136,178.245l-.188-.11h-.219a.619.619,0,0,0-.235,0h-.2a.3.3,0,0,1-.235,0,.293.293,0,0,1-.141-.188.315.315,0,0,1,0-.234.37.37,0,0,1,.172-.141,1.152,1.152,0,0,1,.611,0h.266a1.791,1.791,0,0,1,.3.172.343.343,0,0,1,0,.438.3.3,0,0,1-.219,0h-.219Z" fill="#ea8577"/>
    <path id="Path_159" data-name="Path 159" d="M301.421,164.769a5.1,5.1,0,0,1-.078-1.1,3.619,3.619,0,0,1,.5-1.925,1.142,1.142,0,0,1,1.69,0,3.521,3.521,0,0,1,1.049,1.691,5.786,5.786,0,0,1,.234,1.158,3.639,3.639,0,0,1-.516.845,8.135,8.135,0,0,0-.3-1.847c-.188-.563-.564-1.393-1.19-1.565s-.8,1-.845,1.424a4.946,4.946,0,0,0,.313,2.285.217.217,0,0,1,0,.173,2.509,2.509,0,0,1-.861-1.143Z" fill="#ea8577"/>
    <path id="Path_160" data-name="Path 160" d="M299.089,170.67a2.894,2.894,0,0,1-.814-.861,2.315,2.315,0,0,0-.078-.72,6.4,6.4,0,0,1,.125-2.379,1.173,1.173,0,0,1,.559-.843,1.172,1.172,0,0,1,1.006-.1,3.329,3.329,0,0,1,1.565,1.565,3.918,3.918,0,0,1,.282.579,6.5,6.5,0,0,1-.235,1.205,5.415,5.415,0,0,0-.641-1.565c-.251-.407-1.174-1.737-1.738-1.033a1.733,1.733,0,0,0-.266.923,7.942,7.942,0,0,0,0,1.362,8.479,8.479,0,0,0,.235,1.863Z" fill="#ea8577"/>
    <path id="Path_161" data-name="Path 161" d="M294.081,171.718a1.563,1.563,0,0,1,1.487-1.377c.8,0,1.361.767,1.753,1.377.219.36.407.736.594,1.111a6.165,6.165,0,0,1-.219,1.033c-.532-1.33-1.659-3.756-2.723-2.629-.626.657-.3,1.8,0,2.551a8.145,8.145,0,0,0,.861,1.831,2.077,2.077,0,0,1-1.127-.814c-.078-.172-.141-.344-.219-.532a4.9,4.9,0,0,1-.407-2.551Z" fill="#ea8577"/>
    <path id="Path_162" data-name="Path 162" d="M293.517,180.937a5.73,5.73,0,0,1-.845-1.018,6.291,6.291,0,0,0-.109-.751c0-.782-.126-1.909.563-2.457s1.565.141,2,.689l.846.86a6.414,6.414,0,0,1,.078,1.19,1.563,1.563,0,0,0-.517-.767l-.751-.783c-.344-.36-1.064-1.267-1.471-.485a2.761,2.761,0,0,0-.172,1.065,6.839,6.839,0,0,0,.094,1.142,13.088,13.088,0,0,0,.281,1.315Z" fill="#ea8577"/>
    <path id="Path_163" data-name="Path 163" d="M332.8,266.69a64.433,64.433,0,0,1-8.89.5c-1.362-.125-2.755-3.334-4.1-8.3C326.51,258.223,330.752,263.294,332.8,266.69Z" fill="#ea8577"/>
    <path id="Path_164" data-name="Path 164" d="M338.53,240.521l2.207,7.528a15.649,15.649,0,0,0,.391-8.295Z" fill="#ea8577"/>
    <path id="Path_165" data-name="Path 165" d="M324.256,195.352a3.336,3.336,0,0,0-.2-.752,11.459,11.459,0,0,1-2.942,2.88c-.329.219,0,.736.3.517a12.081,12.081,0,0,0,2.848-2.645Z" fill="#ea8577"/>
    <path id="Path_166" data-name="Path 166" d="M378.707,252.181a1,1,0,0,0,0,.11v.407c0,.407.548.376.6,0a32.868,32.868,0,0,0-5.4-22.554l-.6.188A32.522,32.522,0,0,1,378.707,252.181Z" fill="#779fff"/>
    <path id="Path_167" data-name="Path 167" d="M445.46,284.329a33.306,33.306,0,0,0-9.391-23.758,32.5,32.5,0,0,0-2.661-2.426,9.39,9.39,0,0,0-3.631-2.051.3.3,0,0,1-.071-.549.3.3,0,0,1,.228-.03,13.442,13.442,0,0,1,5.681,3.772,32.293,32.293,0,0,1,4.367,5.087,34.263,34.263,0,0,1,5.384,12.333,32.912,32.912,0,0,1,.72,7.622.316.316,0,0,1-.11.175.311.311,0,0,1-.391,0,.316.316,0,0,1-.11-.175Z" fill="#779fff"/>
    <path id="Path_168" data-name="Path 168" d="M488.141,434.175c-14.258,12.521-35.2,9.813-52.307,6.26a197.905,197.905,0,0,1-57.393-21.129A170.044,170.044,0,0,1,353.4,401.87c-7.653-6.354-15.119-13.116-23.852-18.03a53.072,53.072,0,0,0-28.048-6.871,64.174,64.174,0,0,0-27.968,7.716c-16.966,9.125-29.143,25.2-36.89,42.525-.971,2.191-1.879,4.429-2.724,6.667-.548,1.456-2.9.83-2.347-.642,6.73-17.826,17.466-34.558,33.086-45.827s36.17-16.214,54.78-10.611c9.578,2.911,17.842,8.639,25.543,14.869,7.935,6.385,15.479,13.178,23.946,18.891a184.433,184.433,0,0,0,56.47,24.932A155.808,155.808,0,0,0,454.6,440.8c8.937.6,18.406-.11,26.388-4.492a30.761,30.761,0,0,0,5.447-3.834c1.174-1.033,2.9.673,1.722,1.706Z" fill="#ff5f5f"/>
    <path id="Path_169" data-name="Path 169" d="M477.717,438.76a1.235,1.235,0,0,1-1.659-.422,1.221,1.221,0,0,1,.423-1.659,98.889,98.889,0,0,0,35.9-27.374,97.362,97.362,0,0,0,12.521-19.7,98.976,98.976,0,0,0,9.626-38.487q.813,6.339,1.064,12.772a101.777,101.777,0,0,1-7.231,23.962,98.522,98.522,0,0,1-12.333,20.722,101.909,101.909,0,0,1-35.7,28.955Z" fill="#ff5f5f"/>
    <path id="Path_170" data-name="Path 170" d="M539.994,361.412s-23.211-32.993-12.427-39.708,13.961-.187,23.477,6.809,5.681-8.076,14.727-7.137,7.169,12.818,14.54,14.321,7.889-22.6,20.551-11.645-4.4,46.281-4.4,46.281Z" fill="#dca424"/>
    <path id="Path_171" data-name="Path 171" d="M532.355,364.855s-8.138-9.25-1.408-15.2,18.64,8.451,23.649,5.634.829-20.347,12.709-20.832,12.975,7.826,18.922,7.012,8.546-22.037,21.348-13.9-4.444,38.064-4.444,38.064Z" fill="#ffc339"/>
    <path id="Path_172" data-name="Path 172" d="M586.948,366.311h-.126a.258.258,0,0,1-.11-.156.255.255,0,0,1,.032-.189l17-29.549a.244.244,0,0,1,.145-.115.241.241,0,0,1,.278.349l-17.013,29.566a.219.219,0,0,1-.2.094Z" fill="#697f64"/>
    <path id="Path_173" data-name="Path 173" d="M574.348,365.168a.233.233,0,0,1-.147-.045.236.236,0,0,1-.088-.127l-5.431-21.787a.248.248,0,0,1,.03-.182.241.241,0,0,1,.15-.107.242.242,0,0,1,.29.18l5.431,21.771a.251.251,0,0,1-.027.182.248.248,0,0,1-.145.115Z" fill="#697f64"/>
    <path id="Path_174" data-name="Path 174" d="M549.572,365.512a.246.246,0,0,1-.172-.078L538.882,355.01a.256.256,0,0,1-.035-.16.248.248,0,0,1,.072-.147.25.25,0,0,1,.308-.037l10.517,10.424a.249.249,0,0,1,0,.344.245.245,0,0,1-.172.078Z" fill="#697f64"/>
    <path id="Path_175" data-name="Path 175" d="M551.044,357.749a.268.268,0,0,1-.22-.125l-17.482-31.788a.249.249,0,0,1,.094-.328.222.222,0,0,1,.187-.032.223.223,0,0,1,.085.047.217.217,0,0,1,.057.079l17.5,31.787a.253.253,0,0,1,.018.183.256.256,0,0,1-.112.146Z" fill="#a7c99f"/>
    <path id="Path_176" data-name="Path 176" d="M566.006,348.233a.232.232,0,0,1-.234-.234l-.893-20.347a.239.239,0,0,1,.014-.1.217.217,0,0,1,.049-.081.243.243,0,0,1,.172-.075.237.237,0,0,1,.171.058.236.236,0,0,1,.056.073.232.232,0,0,1,.024.089l.892,20.346a.251.251,0,0,1-.235.251Z" fill="#a7c99f"/>
    <path id="Path_177" data-name="Path 177" d="M586.369,348.233h-.094a.249.249,0,0,1-.133-.128.252.252,0,0,1-.008-.185l8.373-21.52a.251.251,0,0,1,.132-.1.25.25,0,0,1,.322.268l-8.373,21.52a.219.219,0,0,1-.219.141Z" fill="#a7c99f"/>
    <path id="Path_178" data-name="Path 178" d="M568.307,463.74a1.456,1.456,0,0,1-1.456-1.456V399.679a1.456,1.456,0,1,1,2.911,0v62.605a1.456,1.456,0,0,1-1.455,1.456Z" fill="#3e2e53"/>
    <path id="Path_179" data-name="Path 179" d="M534.39,463.74h-.313A1.472,1.472,0,0,1,532.966,462L547.6,394.827a1.455,1.455,0,0,1,1.15-1.255,1.456,1.456,0,0,1,1.743,1.267,1.465,1.465,0,0,1-.06.6L535.8,462.629a1.457,1.457,0,0,1-1.409,1.111Z" fill="#3e2e53"/>
    <path id="Path_180" data-name="Path 180" d="M603.131,463.74a1.471,1.471,0,0,1-1.424-1.143l-14.634-67.191a1.438,1.438,0,0,1,1.111-1.721,1.47,1.47,0,0,1,1.737,1.111l14.634,67.175a1.472,1.472,0,0,1-1.111,1.738Z" fill="#3e2e53"/>
    <path id="Path_181" data-name="Path 181" d="M527.034,362.539v14.978a40.271,40.271,0,1,0,80.542,0V362.539Z" fill="#fff"/>
    <path id="Path_182" data-name="Path 182" d="M594.7,407a40.765,40.765,0,0,0,6.714-8.107V362.539H594.7Z" fill="#ffeddd"/>
    <path id="Path_183" data-name="Path 183" d="M537.755,404.875a40.161,40.161,0,0,0,26.608,12.8V362.539H537.755Z" fill="#ffb8c9"/>
    <path id="Path_184" data-name="Path 184" d="M607.576,368.737H527.034v.328h80.542Z" fill="#e29570"/>
  </g>
</svg>
