<svg xmlns="http://www.w3.org/2000/svg" width="189.486" height="40.412" viewBox="0 0 189.486 40.412">
  <g id="icon1" opacity="0.67">
    <path id="Path_38" data-name="Path 38" d="M78.8,8.082V32.329h-4.21V13.3h-.056L67.016,32.329H64.21L56.52,13.3h-.056V32.329H52.591V8.082h6.062l6.96,17.961h.112L73.078,8.082Zm3.48,1.852a2.134,2.134,0,0,1,.73-1.684,2.51,2.51,0,0,1,1.74-.674,2.457,2.457,0,0,1,1.8.674,2.333,2.333,0,0,1,.73,1.684,2.134,2.134,0,0,1-.73,1.684,2.549,2.549,0,0,1-1.8.674,2.325,2.325,0,0,1-1.74-.674A2.542,2.542,0,0,1,82.283,9.935Zm4.546,5v17.4h-4.1V14.93Zm12.4,14.425a4.73,4.73,0,0,0,2.021-.449,8.846,8.846,0,0,0,2.02-1.122V31.6a7.153,7.153,0,0,1-2.245.842,13.806,13.806,0,0,1-2.75.281,8.245,8.245,0,0,1-6.23-2.414,8.375,8.375,0,0,1-2.414-6.174,9.9,9.9,0,0,1,2.47-6.9,8.886,8.886,0,0,1,6.96-2.694,10.324,10.324,0,0,1,2.3.281,7.639,7.639,0,0,1,1.852.674V19.42a8.152,8.152,0,0,0-1.908-1.066,6.443,6.443,0,0,0-2.021-.393,5.119,5.119,0,0,0-3.929,1.572A5.888,5.888,0,0,0,93.9,23.8a5.616,5.616,0,0,0,1.459,4.1A5.25,5.25,0,0,0,99.233,29.355Zm15.66-14.705a4.531,4.531,0,0,1,.9.056,5.752,5.752,0,0,1,.673.168v4.153a2.514,2.514,0,0,0-.954-.449A5.756,5.756,0,0,0,114,18.354a3.14,3.14,0,0,0-2.526,1.291,6.2,6.2,0,0,0-1.066,3.929v8.756h-4.1V14.93h4.1v2.75h.056a5.286,5.286,0,0,1,1.684-2.245A4.942,4.942,0,0,1,114.893,14.649Zm1.8,9.261a9.7,9.7,0,0,1,2.413-6.848,8.931,8.931,0,0,1,6.736-2.526,8.249,8.249,0,0,1,6.342,2.414,9.265,9.265,0,0,1,2.3,6.567,9.508,9.508,0,0,1-2.413,6.735,8.755,8.755,0,0,1-6.623,2.526,8.648,8.648,0,0,1-6.4-2.357A9.009,9.009,0,0,1,116.689,23.91Zm4.266-.168a6.125,6.125,0,0,0,1.234,4.153,4.487,4.487,0,0,0,3.536,1.459,4.085,4.085,0,0,0,3.424-1.459,6.554,6.554,0,0,0,1.179-4.266,6.768,6.768,0,0,0-1.179-4.266,4.684,4.684,0,0,0-6.847.056A6.149,6.149,0,0,0,120.955,23.742Zm19.644-4.21a1.782,1.782,0,0,0,.562,1.4,9.573,9.573,0,0,0,2.469,1.235,8.562,8.562,0,0,1,3.424,2.189,4.55,4.55,0,0,1,1.01,2.975,4.712,4.712,0,0,1-1.908,3.929,7.9,7.9,0,0,1-5.108,1.459,13.3,13.3,0,0,1-2.413-.281,9.7,9.7,0,0,1-2.245-.674V27.727a9.788,9.788,0,0,0,2.413,1.235,7.567,7.567,0,0,0,2.358.449,3.771,3.771,0,0,0,2.02-.393,1.378,1.378,0,0,0,.674-1.291,1.977,1.977,0,0,0-.674-1.459,10.361,10.361,0,0,0-2.582-1.347,7.718,7.718,0,0,1-3.2-2.133,4.774,4.774,0,0,1-.954-3.031,4.783,4.783,0,0,1,1.852-3.873,7.415,7.415,0,0,1,4.827-1.515,8.907,8.907,0,0,1,2.021.224c.729.168,1.4.337,1.908.505v3.985a12.105,12.105,0,0,0-1.908-.954,5.945,5.945,0,0,0-2.133-.393,3.129,3.129,0,0,0-1.8.449A1.793,1.793,0,0,0,140.6,19.532ZM149.8,23.91a9.694,9.694,0,0,1,2.414-6.848,8.927,8.927,0,0,1,6.735-2.526,8.249,8.249,0,0,1,6.342,2.414,9.265,9.265,0,0,1,2.3,6.567,9.5,9.5,0,0,1-2.414,6.735,8.755,8.755,0,0,1-6.623,2.526,8.648,8.648,0,0,1-6.4-2.357A9.253,9.253,0,0,1,149.8,23.91Zm4.266-.168A6.12,6.12,0,0,0,155.3,27.9a4.485,4.485,0,0,0,3.536,1.459,4.083,4.083,0,0,0,3.423-1.459,6.554,6.554,0,0,0,1.179-4.266,6.768,6.768,0,0,0-1.179-4.266,4.684,4.684,0,0,0-6.847.056A6.427,6.427,0,0,0,154.07,23.742ZM181.235,18.3h-6.117V32.329h-4.154V18.3h-2.918V14.93h2.918V12.516a6.053,6.053,0,0,1,6.343-6.23c.5,0,.954.056,1.347.056a2.681,2.681,0,0,1,1.01.225V10.1a6.857,6.857,0,0,0-.73-.281,3.728,3.728,0,0,0-1.178-.168,2.534,2.534,0,0,0-1.965.786,3.578,3.578,0,0,0-.673,2.357v2.077h6.117V10.945l4.1-1.235v5.164h4.153v3.368h-4.153V26.38a3.735,3.735,0,0,0,.561,2.245,2.336,2.336,0,0,0,1.852.674,2.768,2.768,0,0,0,.842-.168,2.922,2.922,0,0,0,.842-.393V32.1a3.913,3.913,0,0,1-1.291.393,9.73,9.73,0,0,1-1.8.168,5.071,5.071,0,0,1-3.873-1.347,5.933,5.933,0,0,1-1.291-4.153Z" fill="#b7b7b7"/>
    <path id="Path_39" data-name="Path 39" d="M19.2,0H0V19.2H19.2Z" fill="#b7b7b7"/>
    <path id="Path_40" data-name="Path 40" d="M40.412,0h-19.2V19.2h19.2Z" fill="#b7b7b7"/>
    <path id="Path_41" data-name="Path 41" d="M19.2,21.216H0v19.2H19.2Z" fill="#b7b7b7"/>
    <path id="Path_42" data-name="Path 42" d="M40.412,21.216h-19.2v19.2h19.2Z" fill="#b7b7b7"/>
  </g>
</svg>
