<svg xmlns="http://www.w3.org/2000/svg" width="164.202" height="33.468" viewBox="0 0 164.202 33.468">
  <g id="icon4" transform="translate(-742 -7.381)">
    <path id="Path_14" data-name="Path 14" d="M789.07,25.517a6.1,6.1,0,0,0,1.729-3.4,10.038,10.038,0,0,0,.159-1.7,5.908,5.908,0,0,0-.409-2.092c-.342-.9-.8-1.379-1.342-1.494-.819-.161-1.615.3-2.365,1.425a7.461,7.461,0,0,0-1.2,2.735,8.056,8.056,0,0,0-.159,1.678,5.886,5.886,0,0,0,.409,2.092c.341.9.8,1.379,1.342,1.494A2.172,2.172,0,0,0,789.07,25.517Z" fill="#c4c4c4"/>
    <path id="Path_15" data-name="Path 15" d="M776.541,22.115a6.1,6.1,0,0,1-1.728,3.4,2.173,2.173,0,0,1-1.842.736c-.545-.115-1-.6-1.341-1.494a5.888,5.888,0,0,1-.41-2.092,8.056,8.056,0,0,1,.16-1.678,7.46,7.46,0,0,1,1.205-2.735c.75-1.126,1.546-1.586,2.365-1.425.545.115,1,.6,1.341,1.494a5.888,5.888,0,0,1,.41,2.092A8.127,8.127,0,0,1,776.541,22.115Z" fill="#c4c4c4"/>
    <path id="Path_16" data-name="Path 16" d="M747.162,7.381h45.274a5.211,5.211,0,0,1,5.185,5.241v17.47a5.211,5.211,0,0,1-5.185,5.241H776.2l2.229,5.517-9.8-5.517H747.185A5.211,5.211,0,0,1,742,30.091V12.622A5.192,5.192,0,0,1,747.162,7.381Zm-2.388,4.758a1.825,1.825,0,0,1,1.433-.713,1.666,1.666,0,0,1,1.978,1.655q1.058,7.206,2.3,12.206l4.98-9.585a2.162,2.162,0,0,1,1.705-1.379c1-.069,1.615.575,1.865,1.931a43.357,43.357,0,0,0,2.16,7.861q.888-8.758,3-12.642a1.745,1.745,0,0,1,1.5-1.011,1.96,1.96,0,0,1,1.432.46,1.8,1.8,0,0,1,.7,1.31,2.009,2.009,0,0,1-.227,1.1,28.052,28.052,0,0,0-2.206,8.3,43.331,43.331,0,0,0-.637,8.758,2.753,2.753,0,0,1-.272,1.517,1.467,1.467,0,0,1-1.206.828,2.275,2.275,0,0,1-1.8-.851q-3.172-3.276-5.025-9.792-2.219,4.413-3.275,6.62c-1.342,2.6-2.479,3.931-3.434,4-.614.046-1.137-.483-1.591-1.586q-1.74-4.517-3.752-17.447A2.067,2.067,0,0,1,744.774,12.139Zm48.89,3.609a5.242,5.242,0,0,0-3.638-2.666,5.922,5.922,0,0,0-1.228-.138c-2.183,0-3.957,1.149-5.344,3.448a12.275,12.275,0,0,0-1.774,6.482,8.974,8.974,0,0,0,1.092,4.551,5.238,5.238,0,0,0,3.638,2.666,5.9,5.9,0,0,0,1.228.138c2.206,0,3.979-1.149,5.344-3.448a12.422,12.422,0,0,0,1.773-6.505A8.769,8.769,0,0,0,793.664,15.748Zm-17.9-2.666a5.289,5.289,0,0,1,3.639,2.666,8.779,8.779,0,0,1,1.091,4.528,12.413,12.413,0,0,1-1.774,6.505c-1.364,2.3-3.138,3.448-5.343,3.448a5.9,5.9,0,0,1-1.228-.138,5.242,5.242,0,0,1-3.639-2.666,8.984,8.984,0,0,1-1.091-4.551,12.275,12.275,0,0,1,1.774-6.482c1.387-2.3,3.16-3.448,5.343-3.448A5.908,5.908,0,0,1,775.768,13.081Z" fill="#c4c4c4" fill-rule="evenodd"/>
    <path id="Path_17" data-name="Path 17" d="M801.1,21.334a7.818,7.818,0,0,1,2.274-5.792,7.7,7.7,0,0,1,5.753-2.253,9.411,9.411,0,0,1,2.479.3v3.724a8.409,8.409,0,0,0-2.274-.345,3.388,3.388,0,0,0-2.706,1.264,4.81,4.81,0,0,0-1.069,3.218,4.856,4.856,0,0,0,1.091,3.333A3.7,3.7,0,0,0,809.536,26a7.581,7.581,0,0,0,2.07-.345v3.724a8.48,8.48,0,0,1-2.365.368,7.853,7.853,0,0,1-5.89-2.322A8.379,8.379,0,0,1,801.1,21.334Z" fill="#c4c4c4"/>
    <path id="Path_18" data-name="Path 18" d="M814.243,15.38a6.088,6.088,0,0,1,4.912-2.115,6.4,6.4,0,0,1,5.139,2.115,9.255,9.255,0,0,1,1.774,6.068,9.567,9.567,0,0,1-1.751,6.114,6.018,6.018,0,0,1-4.98,2.184,6.157,6.157,0,0,1-5.094-2.184,9.845,9.845,0,0,1-1.75-6.275A8.912,8.912,0,0,1,814.243,15.38Zm4.912,10.8a2.016,2.016,0,0,0,1.8-.965,8.146,8.146,0,0,0,.659-3.816c0-3.057-.819-4.574-2.41-4.574-1.524,0-2.274,1.494-2.274,4.505a8.6,8.6,0,0,0,.568,3.885A1.825,1.825,0,0,0,819.155,26.184Z" fill="#c4c4c4" fill-rule="evenodd"/>
    <path id="Path_19" data-name="Path 19" d="M836.483,17.219,837.3,13.7h5.412L844.8,29.356h-4.138L839.552,18.6,836.96,29.356h-2.82l-2.706-10.781-1.068,10.781h-3.957L828.387,13.7h5.276c.75,3.379,1.342,6.275,1.774,8.712l.454-2.437C836.073,19.035,836.278,18.115,836.483,17.219Z" fill="#c4c4c4"/>
    <path id="Path_20" data-name="Path 20" d="M855.425,17.219l.818-3.517h5.389l2.093,15.654h-4.139L858.472,18.6,855.9,29.356h-2.82l-2.706-10.781-1.068,10.781h-3.957L847.329,13.7H852.6c.75,3.379,1.342,6.275,1.774,8.712l.454-2.437C855.015,19.035,855.22,18.115,855.425,17.219Z" fill="#c4c4c4"/>
    <path id="Path_21" data-name="Path 21" d="M872.82,23.173h-3.706v2.873h4.3v3.333H864.93V13.725h8.459v3.333h-4.275v2.873h3.706Z" fill="#c4c4c4"/>
    <path id="Path_22" data-name="Path 22" d="M885.85,18.483a4.217,4.217,0,0,1-.659,2.207,4.147,4.147,0,0,1-1.865,1.609l3.343,7.057h-4.412l-3.388-7.126H878.8v7.126h-4.184V13.7h4.866a7.653,7.653,0,0,1,4.662,1.287A4.136,4.136,0,0,1,885.85,18.483Zm-7.072-1.77v3.724c1.842-.023,2.774-.575,2.774-1.655a1.8,1.8,0,0,0-.636-1.563A3.794,3.794,0,0,0,878.778,16.713Z" fill="#c4c4c4" fill-rule="evenodd"/>
    <path id="Path_23" data-name="Path 23" d="M886.032,21.334a7.818,7.818,0,0,1,2.274-5.792,7.733,7.733,0,0,1,5.753-2.253,9.411,9.411,0,0,1,2.479.3v3.724a8.409,8.409,0,0,0-2.274-.345,3.388,3.388,0,0,0-2.706,1.264,4.81,4.81,0,0,0-1.069,3.218,4.856,4.856,0,0,0,1.091,3.333A3.7,3.7,0,0,0,894.468,26a7.581,7.581,0,0,0,2.07-.345v3.724a8.486,8.486,0,0,1-2.365.368,7.853,7.853,0,0,1-5.89-2.322A8.379,8.379,0,0,1,886.032,21.334Z" fill="#c4c4c4"/>
    <path id="Path_24" data-name="Path 24" d="M901.881,23.149v2.873H906.2v3.333H897.72V13.7h8.459v3.333h-4.3v2.873h3.707v3.241Z" fill="#c4c4c4"/>
  </g>
</svg>
