<svg xmlns="http://www.w3.org/2000/svg" width="117.704" height="31.332" viewBox="0 0 117.704 31.332">
  <g id="icon2" transform="translate(-262 -5.411)">
    <path id="Path_33" data-name="Path 33" d="M273.361,5.757a3.1,3.1,0,1,0,0,6.2h3.1v-3.1a3.1,3.1,0,0,0-3.1-3.1Zm0,8.263H265.1a3.1,3.1,0,0,0,0,6.2h8.263a3.1,3.1,0,1,0,0-6.2Z" fill="#c4c4c4" fill-rule="evenodd"/>
    <path id="Path_34" data-name="Path 34" d="M292.986,17.118a3.1,3.1,0,0,0-6.2,0v3.1h3.1A3.1,3.1,0,0,0,292.986,17.118Zm-8.263,0V8.855a3.1,3.1,0,0,0-6.2,0v8.263a3.1,3.1,0,1,0,6.2,0Z" fill="#c4c4c4" fill-rule="evenodd"/>
    <path id="Path_35" data-name="Path 35" d="M281.625,36.743a3.1,3.1,0,1,0,0-6.2h-3.1v3.1A3.1,3.1,0,0,0,281.625,36.743Zm0-8.264h8.263a3.1,3.1,0,0,0,0-6.2h-8.263a3.1,3.1,0,0,0,0,6.2Z" fill="#c4c4c4" fill-rule="evenodd"/>
    <path id="Path_36" data-name="Path 36" d="M262,25.381a3.1,3.1,0,0,0,6.2,0v-3.1h-3.1A3.1,3.1,0,0,0,262,25.381Zm8.263,0v8.263a3.1,3.1,0,1,0,6.2,0V25.383a3.1,3.1,0,0,0-6.2,0Z" fill="#c4c4c4" fill-rule="evenodd"/>
    <path id="Path_37" data-name="Path 37" d="M302.055,26.922l2.809-1.636A5.605,5.605,0,0,0,309.678,28a4.078,4.078,0,0,0,2.284-.556,1.789,1.789,0,0,0,.864-1.543,1.725,1.725,0,0,0-.71-1.358,4.593,4.593,0,0,0-1.45-.864q-.772-.309-2.315-.8c-.185-.062-.319-.1-.4-.123q-1.111-.37-1.883-.71a12.5,12.5,0,0,1-1.574-.957,4.064,4.064,0,0,1-1.265-1.512,4.984,4.984,0,0,1-.432-2.129,4.419,4.419,0,0,1,1.975-3.765,8.192,8.192,0,0,1,4.907-1.42,7.879,7.879,0,0,1,4.136,1.173,7.488,7.488,0,0,1,2.9,2.932l-2.593,1.574a5.34,5.34,0,0,0-4.413-2.5,3.56,3.56,0,0,0-2.191.586,1.76,1.76,0,0,0-.741,1.481,1.878,1.878,0,0,0,.648,1.389,4.84,4.84,0,0,0,1.389.864q.709.278,2.006.71a5.057,5.057,0,0,1,.494.154q5.493,1.759,5.493,5.308a4.7,4.7,0,0,1-1.851,3.734,7.909,7.909,0,0,1-5.185,1.512,9.306,9.306,0,0,1-4.63-1.142A7.889,7.889,0,0,1,302.055,26.922Zm18.147,3.7V5.411h3.889V30.625Zm11.357-5a2.137,2.137,0,0,0,.772,1.667,3.237,3.237,0,0,0,2.1.648,4.4,4.4,0,0,0,3.147-1.234,4.219,4.219,0,0,0,1.328-3.24V21.83q-1.42.339-3.426.648Q331.559,23.1,331.559,25.626Zm-3.95.34q0-5.031,7.469-6.142a29.878,29.878,0,0,0,3.827-.741v-.957a2.467,2.467,0,0,0-.926-2.037,3.842,3.842,0,0,0-2.469-.741,6.548,6.548,0,0,0-5.062,2.407l-2.376-2.037a9.661,9.661,0,0,1,3.3-2.531,9.363,9.363,0,0,1,4.074-.926q3.981,0,5.679,1.944a7.823,7.823,0,0,1,1.7,5.37V30.625h-3.8V28.4a4.817,4.817,0,0,1-1.944,1.975,6.2,6.2,0,0,1-3.21.8,6.769,6.769,0,0,1-4.6-1.451A4.758,4.758,0,0,1,327.609,25.965Zm18.209-4.228a10.035,10.035,0,0,1,2.283-6.882,7.623,7.623,0,0,1,5.957-2.592,6.527,6.527,0,0,1,4.475,1.6,6.859,6.859,0,0,1,2.284,3.673l-3.334.926a4.567,4.567,0,0,0-1.265-2.006,2.96,2.96,0,0,0-2.129-.864,3.565,3.565,0,0,0-3.148,1.759,8.055,8.055,0,0,0-1.111,4.382,7.383,7.383,0,0,0,1.2,4.506,3.673,3.673,0,0,0,3.056,1.6,3.421,3.421,0,0,0,2.376-.926,5.092,5.092,0,0,0,1.451-2.16l3.333.957a7.589,7.589,0,0,1-2.562,3.827,7.036,7.036,0,0,1-4.629,1.636,7.665,7.665,0,0,1-5.957-2.562A10.035,10.035,0,0,1,345.818,21.737Zm18.363,8.888V5.411h3.888V19.916l6.327-7.1H379.3l-6.574,7.252L379.7,30.625h-4.567L370.2,22.817l-2.13,2.345v5.463Z" fill="#c4c4c4"/>
  </g>
</svg>
