<svg xmlns="http://www.w3.org/2000/svg" width="126.842" height="38.187" viewBox="0 0 126.842 38.187">
  <g id="icon3" transform="translate(-499.445 -7.243)">
    <path id="Path_25" data-name="Path 25" d="M572.746,8.534v2.894a.742.742,0,0,0,.756.711h6.722l-7.745,11.082a3.329,3.329,0,0,0-.489,1.958v2.937a.7.7,0,0,0,.934.668,14.723,14.723,0,0,1,13.619-.045c.489.267.934-.222.934-.668V25a1.326,1.326,0,0,0-.667-1.113,14.5,14.5,0,0,0-7.344-1.557l6.676-9.524c.623-.89.979-1.424.979-1.825V8.534a.74.74,0,0,0-.756-.712H573.458a.677.677,0,0,0-.712.712Z" fill="#c4c4c4"/>
    <path id="Path_26" data-name="Path 26" d="M521.786,29.362H525.7a.782.782,0,0,0,.8-.667V17.8c0-2.334-.006-5.352,2.715-5.352,2.484,0,2.443,2.706,2.41,4.869,0,.239-.007.472-.007.694V28.695a.765.765,0,0,0,.712.712h3.917a.74.74,0,0,0,.756-.712v-11a11.051,11.051,0,0,1,.356-3.554,2.623,2.623,0,0,1,2.359-1.647,2.066,2.066,0,0,1,2.315,1.736,18.788,18.788,0,0,1,.1,3.084c0,.275-.009.517-.009.7V28.695a.765.765,0,0,0,.713.712h3.872a.742.742,0,0,0,.757-.712V15.966c0-.324.006-.655.012-.987.034-1.9.069-3.893-.991-5.332a5.518,5.518,0,0,0-4.54-2.225,5.577,5.577,0,0,0-5.43,3.738c-1.068-2.537-2.626-3.738-5.074-3.738a5.187,5.187,0,0,0-5.163,3.738h-.089V8.534a.725.725,0,0,0-.712-.668h-3.649a.742.742,0,0,0-.757.712V28.695a.8.8,0,0,0,.712.668Z" fill="#c4c4c4"/>
    <path id="Path_27" data-name="Path 27" d="M607.238,18.77c0-6.364-3.16-11.349-8.99-11.349-5.7,0-8.857,4.9-8.813,11.171,0,6.231,3.116,11.216,8.813,11.216C603.767,29.808,607.238,24.912,607.238,18.77Zm-12.061-.8c0-2.448.178-6.409,3.071-6.409a2.46,2.46,0,0,1,2.581,1.958,19.459,19.459,0,0,1,.579,5.341c0,2.581-.178,6.81-3.205,6.81s-3.027-5.107-3.026-7.6Z" fill="#c4c4c4" fill-rule="evenodd"/>
    <path id="Path_28" data-name="Path 28" d="M610.843,29.362h3.916a.814.814,0,0,0,.8-.712V17.791a9.24,9.24,0,0,1,.623-3.827,2.577,2.577,0,0,1,2.27-1.6c2.5,0,2.472,2.71,2.451,4.877,0,.189,0,.374,0,.553V28.739a.809.809,0,0,0,.712.623h3.917a.733.733,0,0,0,.757-.623V16.055c0-1.958,0-4.673-1.024-6.275a5.182,5.182,0,0,0-4.584-2.359c-2.715,0-4.228,1.291-5.341,4.05h-.089V8.4a.761.761,0,0,0-.712-.579h-3.65a.768.768,0,0,0-.756.668V28.65A.764.764,0,0,0,610.843,29.362Z" fill="#c4c4c4"/>
    <path id="Path_29" data-name="Path 29" d="M565.973,29.513a.8.8,0,0,0,.453-.195h0c.284-.237.647-.547,1.035-.878.7-.6,1.49-1.273,2.035-1.7.312-.222.268-.668,0-1.024-.085-.123-.172-.243-.257-.362a4.97,4.97,0,0,1-1.211-3.287v-6.1q0-.306,0-.608c.013-2.349.025-4.517-1.738-6.157a8.807,8.807,0,0,0-5.919-1.958c-3.739,0-7.878,1.38-8.768,6.008a.685.685,0,0,0,.579.8l3.783.4c.356,0,.578-.356.667-.712a2.964,2.964,0,0,1,3.16-2.359,2.633,2.633,0,0,1,2.18,1.024,4.155,4.155,0,0,1,.492,2.517c0,.112,0,.223,0,.331v.49c-.369.043-.757.085-1.157.127a22.306,22.306,0,0,0-6.231,1.253,6.662,6.662,0,0,0-4.184,6.409c0,4.05,2.581,6.1,5.875,6.1,2.759,0,4.317-.668,6.453-2.848.1.149.2.289.288.42a8.668,8.668,0,0,0,1.982,2.206A.8.8,0,0,0,565.973,29.513Zm-3.508-9.525V18.9c-2.848,0-5.83.623-5.83,3.961,0,1.691.89,2.848,2.4,2.848a3.149,3.149,0,0,0,2.715-1.78A7.515,7.515,0,0,0,562.465,19.988Z" fill="#c4c4c4" fill-rule="evenodd"/>
    <path id="Path_30" data-name="Path 30" d="M514.524,29.513a.8.8,0,0,0,.453-.195h0c.285-.237.648-.547,1.035-.878.705-.6,1.491-1.273,2.036-1.7.312-.222.267-.668,0-1.024-.086-.123-.172-.243-.258-.362a4.975,4.975,0,0,1-1.21-3.287v-6.1q0-.306,0-.608c.013-2.349.024-4.517-1.738-6.157a8.808,8.808,0,0,0-5.919-1.958c-3.739,0-7.878,1.38-8.768,6.008a.685.685,0,0,0,.579.8l3.783.4c.356,0,.578-.356.667-.712a2.964,2.964,0,0,1,3.16-2.359,2.633,2.633,0,0,1,2.18,1.024,4.162,4.162,0,0,1,.492,2.517c0,.112,0,.223,0,.331v.49c-.369.043-.757.085-1.157.127a22.306,22.306,0,0,0-6.231,1.253,6.661,6.661,0,0,0-4.184,6.409c0,4.05,2.581,6.1,5.874,6.1,2.76,0,4.317-.668,6.454-2.848.1.149.2.289.288.42a8.65,8.65,0,0,0,1.982,2.206A.8.8,0,0,0,514.524,29.513Zm-3.463-9.524c0-.079,0-.159,0-.239V18.9c-2.848,0-5.83.623-5.83,3.961,0,1.691.89,2.848,2.4,2.848a3.149,3.149,0,0,0,2.715-1.78A7.515,7.515,0,0,0,511.061,19.988Z" fill="#c4c4c4" fill-rule="evenodd"/>
    <path id="Path_31" data-name="Path 31" d="M581.2,33.59c-.934-1.2-6.231-.579-8.589-.267-.712.089-.846-.534-.178-.979,4.228-2.982,11.126-2.092,11.927-1.113s-.222,7.922-4.184,11.216c-.623.49-1.2.222-.934-.445l.046-.116C580.2,39.609,582.12,34.815,581.2,33.59Z" fill="#c4c4c4"/>
    <path id="Path_32" data-name="Path 32" d="M578.131,37.107c-7.344,5.43-18.025,8.323-27.238,8.323A49.388,49.388,0,0,1,517.6,32.745c-.667-.623-.089-1.469.757-.979a66.9,66.9,0,0,0,33.29,8.812,66.233,66.233,0,0,0,25.413-5.207C578.308,34.882,579.332,36.217,578.131,37.107Z" fill="#c4c4c4"/>
  </g>
</svg>
