<svg xmlns="http://www.w3.org/2000/svg" xmlns:xlink="http://www.w3.org/1999/xlink" width="80.5" height="90.42" viewBox="0 0 80.5 90.42">
  <defs>
    <linearGradient id="linear-gradient" x1="0.599" y1="0.797" x2="1" gradientUnits="objectBoundingBox">
      <stop offset="0" stop-color="#2e7fd3"/>
      <stop offset="1" stop-color="#31cace"/>
    </linearGradient>
  </defs>
  <g id="Group_82" data-name="Group 82" transform="translate(-3.25 -2.333)">
    <path id="Layer_2" data-name="Layer 2" d="M74.289,1.361,35.021,4.906a7.238,7.238,0,0,0-6.283,7.343V63.906a17.1,17.1,0,0,0-10.8-3.84,15.038,15.038,0,0,0-11.4,4.188A17.384,17.384,0,0,0,1.25,75.892,17.384,17.384,0,0,0,6.536,87.53a15.039,15.039,0,0,0,11.4,4.188,15.039,15.039,0,0,0,11.4-4.188,17.384,17.384,0,0,0,5.286-11.638V26.05L75.86,22.336V47.025a17.1,17.1,0,0,0-10.8-3.841,15.039,15.039,0,0,0-11.4,4.188,17.384,17.384,0,0,0-5.286,11.638,17.384,17.384,0,0,0,5.286,11.638,15.039,15.039,0,0,0,11.4,4.188,15.039,15.039,0,0,0,11.4-4.188A17.384,17.384,0,0,0,81.75,59.011V8.746a7.651,7.651,0,0,0-2.216-5.46,6.583,6.583,0,0,0-5.245-1.926ZM34.628,19.719v-7.47a1.02,1.02,0,0,1,.982-1.055l39.268-3.5a.975.975,0,0,1,.746.253,1.139,1.139,0,0,1,.314.8v7.259Z" transform="translate(2 1)" fill="url(#linear-gradient)"/>
  </g>
</svg>
