<svg xmlns="http://www.w3.org/2000/svg" xmlns:xlink="http://www.w3.org/1999/xlink" width="80" height="100" viewBox="0 0 80 100">
  <defs>
    <linearGradient id="linear-gradient" x1="0.188" y1="1.089" x2="0.678" y2="0.062" gradientUnits="objectBoundingBox">
      <stop offset="0" stop-color="#ff3838"/>
      <stop offset="1" stop-color="#fb8d8d"/>
    </linearGradient>
  </defs>
  <g id="Group_79" data-name="Group 79" transform="translate(-40.96 0)">
    <path id="Union_2" data-name="Union 2" d="M31.032,97.416c-2.4-2.528-8.175-15.16-8.175-31.416,0-5.42,7.851-10,17.142-10s17.143,4.58,17.143,10c0,16.256-5.772,28.888-8.175,31.416C47.4,99.06,44.133,100,40,100S32.6,99.06,31.032,97.416ZM60.857,75.492a2.059,2.059,0,0,1,.426-2.792A38.64,38.64,0,0,0,76.19,42C76.19,21.048,59.954,4,40,4S3.81,21.048,3.81,42A38.641,38.641,0,0,0,18.716,72.7a2.06,2.06,0,0,1,.427,2.792,1.845,1.845,0,0,1-2.659.448A42.709,42.709,0,0,1,0,42C0,18.84,17.943,0,40,0S80,18.84,80,42A42.71,42.71,0,0,1,63.516,75.94a1.834,1.834,0,0,1-1.116.38A1.863,1.863,0,0,1,60.857,75.492ZM20.2,57.532A26.3,26.3,0,0,1,15.238,42c0-14.336,11.109-26,24.762-26S64.762,27.664,64.761,42A26.3,26.3,0,0,1,59.8,57.532a1.852,1.852,0,0,1-2.671.384,2.074,2.074,0,0,1-.366-2.808A22.181,22.181,0,0,0,60.952,42c0-12.128-9.4-22-20.952-22S19.048,29.872,19.048,42a22.185,22.185,0,0,0,4.186,13.108,2.074,2.074,0,0,1-.366,2.808,1.843,1.843,0,0,1-1.15.406A1.878,1.878,0,0,1,20.2,57.532ZM30.476,42A9.779,9.779,0,0,1,40,32a9.779,9.779,0,0,1,9.524,10A9.779,9.779,0,0,1,40,52,9.779,9.779,0,0,1,30.476,42Z" transform="translate(40.96 0)" fill="url(#linear-gradient)"/>
  </g>
</svg>
