<svg id="social_icon" data-name="social icon" xmlns="http://www.w3.org/2000/svg" width="117" height="28.471" viewBox="0 0 117 28.471">
  <path id="Path_60" data-name="Path 60" d="M110.61,0H94.92a6.39,6.39,0,0,0-6.39,6.39V22.08a6.39,6.39,0,0,0,6.39,6.39h15.69A6.39,6.39,0,0,0,117,22.08V6.39A6.39,6.39,0,0,0,110.61,0Z" transform="translate(0 0)" fill="#fff"/>
  <path id="Path_61" data-name="Path 61" d="M99.44,12.315H97.162v6.672H99.44Z" transform="translate(0 0)"/>
  <path id="Path_62" data-name="Path 62" d="M99.057,9.2a1.419,1.419,0,0,0-.733-.2,1.439,1.439,0,0,0-.507.092,1.337,1.337,0,0,0-.43.262,1.2,1.2,0,0,0-.286.391,1.1,1.1,0,0,0-.1.461,1.123,1.123,0,0,0,.226.664,1.3,1.3,0,0,0,.594.439,1.447,1.447,0,0,0,.763.065,1.367,1.367,0,0,0,.675-.33,1.169,1.169,0,0,0,.36-.614,1.1,1.1,0,0,0-.076-.692A1.233,1.233,0,0,0,99.057,9.2Z" transform="translate(0 0)"/>
  <path id="Path_63" data-name="Path 63" d="M103.1,12.315H100.9L100.894,19h2.278V15.7c0-.868.183-1.709,1.367-1.709s1.185,1,1.185,1.771v3.226H108v-3.66c0-1.8-.463-3.177-2.741-3.177a2.6,2.6,0,0,0-1.246.266,2.307,2.307,0,0,0-.918.809Z" transform="translate(0 0)"/>
  <path id="Path_64" data-name="Path 64" d="M24.912,0H3.559A3.562,3.562,0,0,0,0,3.559V24.912a3.562,3.562,0,0,0,3.559,3.559H24.912a3.562,3.562,0,0,0,3.559-3.559V3.559A3.562,3.562,0,0,0,24.912,0Z" transform="translate(0 0)" fill="#fff"/>
  <path id="Path_65" data-name="Path 65" d="M18,12.615H15.667V10.769c0-.51.418-.462.933-.462h.933V8H15.667a2.816,2.816,0,0,0-1.98.811,2.754,2.754,0,0,0-.82,1.958v1.846H11v2.308h1.867V20h2.8V14.923h1.4Z" transform="translate(0 0)" fill-rule="evenodd"/>
  <path id="Path_66" data-name="Path 66" d="M72.469,24.516a3.988,3.988,0,0,1-1.139,2.8,3.856,3.856,0,0,1-2.75,1.158H48.358a3.856,3.856,0,0,1-2.75-1.158,3.988,3.988,0,0,1-1.139-2.8V3.954a3.988,3.988,0,0,1,1.139-2.8A3.856,3.856,0,0,1,48.358,0H68.58a3.856,3.856,0,0,1,2.75,1.158,3.988,3.988,0,0,1,1.139,2.8Z" transform="translate(0 0)" fill="#fff"/>
  <path id="Path_67" data-name="Path 67" d="M63.877,11a4.877,4.877,0,0,1-1.352.417A3.388,3.388,0,0,0,63.877,10a6.252,6.252,0,0,1-1.71.65A2.1,2.1,0,0,0,60.549,10a2.208,2.208,0,0,0-2.081,2.368v.947c-1.8,0-3.561-1.443-4.655-2.842a2.369,2.369,0,0,0-.3,1.164,3.037,3.037,0,0,0,1.35,2.152,4.049,4.049,0,0,1-1.352-.474v.027a2.09,2.09,0,0,0,1.763,2.095,2.709,2.709,0,0,1-1.28.247c.282.917,1.7,1.4,2.672,1.421a5.5,5.5,0,0,1-3.155.947,3.15,3.15,0,0,1-.451-.011A6.745,6.745,0,0,0,56.665,19a6.21,6.21,0,0,0,6.311-6.333c0-.1,0-.437-.008-.535A3.56,3.56,0,0,0,63.877,11Z" transform="translate(0 0)"/>
</svg>
