<svg id="Group_50" data-name="Group 50" xmlns="http://www.w3.org/2000/svg" width="116" height="18.85" viewBox="0 0 116 18.85">
  <path id="Path_185" data-name="Path 185" d="M74.271,7.158a.59.59,0,0,0-.48-.394L67.5,5.874,64.683.323a.6.6,0,0,0-1.067,0L60.8,5.874l-6.293.89a.591.591,0,0,0-.48.394.568.568,0,0,0,.151.593l4.554,4.321-1.075,6.1a.572.572,0,0,0,.237.566.608.608,0,0,0,.626.044L64.15,15.9l5.629,2.881a.608.608,0,0,0,.626-.044.572.572,0,0,0,.237-.566l-1.075-6.1L74.12,7.751A.568.568,0,0,0,74.271,7.158Z" transform="translate(-54)" fill="#ffca56"/>
  <path id="Path_186" data-name="Path 186" d="M98.2,7.158a.59.59,0,0,0-.48-.394l-6.293-.89L88.608.323a.6.6,0,0,0-1.066,0L84.727,5.874l-6.293.89a.591.591,0,0,0-.48.394.568.568,0,0,0,.15.593l4.554,4.321-1.075,6.1a.572.572,0,0,0,.237.566.609.609,0,0,0,.626.044L88.075,15.9,93.7,18.784a.609.609,0,0,0,.626-.044.572.572,0,0,0,.237-.566l-1.075-6.1,4.554-4.321A.568.568,0,0,0,98.2,7.158Z" transform="translate(-54)" fill="#ffca56"/>
  <path id="Path_187" data-name="Path 187" d="M122.121,7.158a.591.591,0,0,0-.48-.394l-6.293-.89L112.533.323a.6.6,0,0,0-1.066,0l-2.815,5.551-6.293.89a.591.591,0,0,0-.48.394.567.567,0,0,0,.151.593l4.553,4.321-1.075,6.1a.573.573,0,0,0,.237.566.608.608,0,0,0,.626.044L112,15.9l5.628,2.881a.61.61,0,0,0,.627-.044.57.57,0,0,0,.236-.566l-1.075-6.1,4.554-4.321A.569.569,0,0,0,122.121,7.158Z" transform="translate(-54)" fill="#ffca56"/>
  <path id="Path_188" data-name="Path 188" d="M146.046,7.158a.591.591,0,0,0-.48-.394l-6.293-.89L136.458.323a.6.6,0,0,0-1.066,0l-2.815,5.551-6.293.89a.591.591,0,0,0-.48.394.569.569,0,0,0,.151.593l4.553,4.321-1.075,6.1a.573.573,0,0,0,.237.566.608.608,0,0,0,.626.044l5.629-2.881,5.629,2.881a.608.608,0,0,0,.626-.044.573.573,0,0,0,.237-.566l-1.076-6.1L145.9,7.751A.569.569,0,0,0,146.046,7.158Z" transform="translate(-54)" fill="#ffca56"/>
  <path id="Path_189" data-name="Path 189" d="M169.971,7.158a.59.59,0,0,0-.48-.394l-6.293-.89L160.383.323a.6.6,0,0,0-1.066,0L156.5,5.874l-6.293.89a.591.591,0,0,0-.48.394.567.567,0,0,0,.151.593l4.553,4.321-1.075,6.1a.573.573,0,0,0,.237.566.608.608,0,0,0,.626.044L159.85,15.9l5.628,2.881a.61.61,0,0,0,.627-.044.57.57,0,0,0,.236-.566l-1.075-6.1,4.554-4.321A.569.569,0,0,0,169.971,7.158Z" transform="translate(-54)" fill="#ffca56"/>
</svg>
